<?xml version="1.0" encoding="utf-8"?>
<!-- Generator: Adobe Illustrator 23.0.3, SVG Export Plug-In . SVG Version: 6.00 Build 0)  -->
<svg version="1.1" id="Calque_1" xmlns="http://www.w3.org/2000/svg" xmlns:xlink="http://www.w3.org/1999/xlink" x="0px" y="0px"
	 viewBox="0 0 558.1 178.8" style="enable-background:new 0 0 558.1 178.8;" xml:space="preserve">
<style type="text/css">
	.st0{fill:#151513;}
	.st1{fill:#A51E2B;}
</style>
<g>
	<path class="st0" d="M112.2,60.9v52.6c-12.8,8.4-26.8,13.1-44.9,13.1c-34.3,0-63.9-25-63.9-62.1C3.5,27,33.5,2.2,67.4,2.2
		c17.7,0,30.4,4.9,42.7,12.5l-9.4,16.4c-9.7-6.2-21.2-10-32.4-10c-27.4,0-42.9,19.4-42.9,43.4c0,25.6,18.9,43.9,42.7,43.9
		c10.4,0,17.3-1.8,24.3-5.8V79H64.4V60.9H112.2z"/>
	<path class="st0" d="M171.7,124.7v-6.7c-5.3,5.1-11.5,8.1-20.4,8.1c-13.6,0-24.7-8.1-24.7-22.2c0-12.5,10-21.9,25.5-21.9
		c8.5,0,13.6,2,18.9,4.4v-3c0-10.8-5.8-15.6-16.9-15.6c-5.8,0-12,1.3-17.4,3l-2.1-14c6.4-2,15.6-3.6,22.5-3.6
		c22,0,32.4,10.4,32.4,30.9v40.6H171.7z M171.1,98.4c-4.9-3.3-8.4-4.8-14.5-4.8c-7.1,0-12.3,3.8-12.3,10c0,6.4,4.6,10.2,12.7,10.2
		c6.2,0,10.8-2.6,14.1-6.7V98.4z"/>
	<path class="st0" d="M227,109.2h36v15.4h-62.1l-0.8-2.5l36.6-52.3h-33.5V54.5H263l0.8,2.5L227,109.2z"/>
	<path class="st0" d="M296.6,109.2h36v15.4h-62.1l-0.8-2.5l36.6-52.3h-33.5V54.5h59.8l0.8,2.5L296.6,109.2z"/>
	<path class="st0" d="M386.5,124.7v-6.7c-5.3,5.1-11.5,8.1-20.4,8.1c-13.6,0-24.7-8.1-24.7-22.2c0-12.5,10-21.9,25.5-21.9
		c8.5,0,13.6,2,18.9,4.4v-3c0-10.8-5.8-15.6-16.9-15.6c-5.8,0-12,1.3-17.4,3l-2.1-14c6.4-2,15.6-3.6,22.5-3.6
		c22,0,32.4,10.4,32.4,30.9v40.6H386.5z M385.9,98.4c-4.9-3.3-8.4-4.8-14.5-4.8c-7.1,0-12.3,3.8-12.3,10c0,6.4,4.6,10.2,12.7,10.2
		c6.2,0,10.8-2.6,14.1-6.7V98.4z"/>
	<path class="st0" d="M440.1,78.5v46.2h-18.7V54.5h18.1V66c6.6-8.7,14.1-12.8,25-12.8v18.4C453.6,70.4,444.4,72.4,440.1,78.5z"/>
</g>
<g>
	<circle class="st1" cx="489.6" cy="62.7" r="9.6"/>
	<circle class="st1" cx="516.7" cy="62.7" r="9.6"/>
	<circle class="st1" cx="543.7" cy="62.7" r="9.6"/>
	<circle class="st1" cx="489.6" cy="89.5" r="9.6"/>
	<circle class="st1" cx="516.7" cy="89.5" r="9.6"/>
	<circle class="st1" cx="489.6" cy="116.4" r="9.6"/>
</g>
<g>
	<path class="st0" d="M177.5,168.4v-1.3c-1.1,1.1-2.4,1.6-4.2,1.6c-3.9,0-6.6-3-6.6-7.2c0-4,3.1-7.3,6.7-7.3c1.8,0,2.9,0.5,3.8,1.2
		v-11h3.7v23.9H177.5z M177.4,158.8c-0.7-0.9-1.9-1.6-3.3-1.6c-2.1,0-3.7,1.6-3.7,4.3c0,2.5,1.3,4.3,3.7,4.3c1.3,0,2.3-0.5,3.2-1.6
		V158.8z"/>
	<path class="st0" d="M197.3,162.5h-9.6c0.3,2,1.5,3.2,4.3,3.2c1.2,0,2.7-0.3,4-0.7l0.5,2.9c-1.7,0.5-3.5,0.8-4.9,0.8
		c-5.2,0-7.6-3.2-7.6-7.2c0-3.7,2.5-7.3,7-7.3c4.2,0,6.4,3,6.4,6.7C197.4,161.3,197.4,162.1,197.3,162.5z M194.1,160.2
		c-0.2-1.9-1.3-3.1-3.1-3.1c-1.8,0-3,1.1-3.3,3.1H194.1z"/>
	<path class="st0" d="M204.6,168.6c-2.1,0-3.9-0.7-5.5-1.8l1.4-2.6c1.2,1,2.8,1.6,4,1.6c1.4,0,2-0.6,2-1.4c0-2.2-6.6-1.3-6.6-5.8
		c0-2.5,2.2-4.4,5.3-4.4c1.6,0,3.3,0.6,4.6,1.3l-1.1,2.7c-1.2-0.7-2.4-1.2-3.6-1.2c-1.2,0-1.8,0.6-1.8,1.3c0,2.1,6.7,1.3,6.7,5.9
		C210,166.8,207.7,168.6,204.6,168.6z"/>
	<path class="st0" d="M225.6,168.7h-0.7l-7.2-14.3h4.1l3.5,8.3l3.5-8.3h4L225.6,168.7z"/>
	<path class="st0" d="M236.6,151.8c-1.2,0-2.2-1-2.2-2.2c0-1.2,0.9-2.2,2.2-2.2s2.2,1,2.2,2.2C238.8,150.8,237.8,151.8,236.6,151.8z
		 M234.8,168.4v-13.9h3.7v13.9H234.8z"/>
	<path class="st0" d="M251.8,168.4v-8.6c0-1.8-0.7-2.5-2.1-2.5c-1.3,0-2.6,0.8-3.7,2v9.2h-3.7v-13.9h3.6v2.3
		c1.6-1.7,3.4-2.6,5.1-2.6c3.1,0,4.5,1.9,4.5,4.7v9.5H251.8z"/>
	<path class="st0" d="M263.4,168.6c-2.1,0-3.9-0.7-5.5-1.8l1.4-2.6c1.2,1,2.8,1.6,4,1.6c1.4,0,2-0.6,2-1.4c0-2.2-6.6-1.3-6.6-5.8
		c0-2.5,2.2-4.4,5.3-4.4c1.6,0,3.3,0.6,4.6,1.3l-1.1,2.7c-1.2-0.7-2.4-1.2-3.6-1.2c-1.2,0-1.8,0.6-1.8,1.3c0,2.1,6.7,1.3,6.7,5.9
		C268.8,166.8,266.5,168.6,263.4,168.6z"/>
	<path class="st0" d="M288.7,168.4v-1.3c-1.1,1.1-2.4,1.6-4.2,1.6c-3.9,0-6.6-3-6.6-7.2c0-4,3.1-7.3,6.7-7.3c1.8,0,2.9,0.5,3.8,1.2
		v-11h3.7v23.9H288.7z M288.5,158.8c-0.7-0.9-1.9-1.6-3.3-1.6c-2.1,0-3.7,1.6-3.7,4.3c0,2.5,1.3,4.3,3.7,4.3c1.3,0,2.3-0.5,3.2-1.6
		V158.8z"/>
	<path class="st0" d="M295.6,151.6l-0.4-0.6c1.1-0.9,1.7-2,2-3c-1.2-0.1-2-0.9-2-2s0.8-1.9,1.9-1.9c1.4,0,2.1,1,2.1,2.3
		C299.2,148.3,297.9,150.4,295.6,151.6z"/>
	<path class="st0" d="M307.1,168.6c-4.5,0-7.3-3.3-7.3-7.2c0-3.9,2.8-7.2,7.3-7.2c4.5,0,7.2,3.3,7.2,7.2
		C314.3,165.4,311.5,168.6,307.1,168.6z M307.1,157c-2.2,0-3.6,1.7-3.6,4.4c0,2.7,1.4,4.4,3.6,4.4c2.2,0,3.6-1.7,3.6-4.4
		C310.7,158.7,309.3,157,307.1,157z"/>
	<path class="st0" d="M321.1,159.2v9.2h-3.7v-13.9h3.6v2.3c1.3-1.7,2.8-2.5,5-2.5v3.7C323.7,157.6,321.9,158,321.1,159.2z"/>
	<path class="st0" d="M330.3,151.8c-1.2,0-2.2-1-2.2-2.2c0-1.2,0.9-2.2,2.2-2.2s2.2,1,2.2,2.2C332.4,150.8,331.5,151.8,330.3,151.8z
		 M328.4,168.4v-13.9h3.7v13.9H328.4z"/>
	<path class="st0" d="M343.2,175.7c-1.4,0-3.1-0.3-4.6-0.7l0.4-3.3c1.2,0.4,2.6,0.7,3.7,0.7c2.3,0,3.4-0.9,3.4-3.2v-1.7
		c-0.9,0.7-2.2,1.2-3.7,1.2c-3.9,0-6.8-2.6-6.8-7c0-4.1,3.1-7.4,6.8-7.4c1.6,0,2.9,0.5,3.9,1.3v-1h3.6v14.6
		C349.6,174,347.2,175.7,343.2,175.7z M346,158.6c-0.7-0.8-1.8-1.4-3.1-1.4c-2.2,0-3.8,1.8-3.8,4.5c0,2.3,1.4,4.1,3.9,4.1
		c1.2,0,2.3-0.5,3-1.4V158.6z"/>
	<path class="st0" d="M355.2,151.8c-1.2,0-2.2-1-2.2-2.2c0-1.2,0.9-2.2,2.2-2.2c1.2,0,2.2,1,2.2,2.2
		C357.4,150.8,356.4,151.8,355.2,151.8z M353.4,168.4v-13.9h3.7v13.9H353.4z"/>
	<path class="st0" d="M370.4,168.4v-8.6c0-1.8-0.7-2.5-2.1-2.5c-1.3,0-2.6,0.8-3.7,2v9.2h-3.7v-13.9h3.6v2.3
		c1.6-1.7,3.4-2.6,5.1-2.6c3.1,0,4.5,1.9,4.5,4.7v9.5H370.4z"/>
	<path class="st0" d="M390.2,162.5h-9.6c0.3,2,1.5,3.2,4.3,3.2c1.2,0,2.7-0.3,4-0.7l0.5,2.9c-1.7,0.5-3.5,0.8-4.9,0.8
		c-5.2,0-7.6-3.2-7.6-7.2c0-3.7,2.5-7.3,7-7.3c4.2,0,6.4,3,6.4,6.7C390.3,161.3,390.3,162.1,390.2,162.5z M387,160.2
		c-0.2-1.9-1.3-3.1-3.1-3.1c-1.8,0-3,1.1-3.3,3.1H387z"/>
</g>
<g>
	<rect x="4.2" y="159.2" class="st1" width="143.8" height="3"/>
	<rect x="409.7" y="159.2" class="st1" width="143.8" height="3"/>
</g>
</svg>
