<svg id="Calque_1" data-name="Calque 1" xmlns="http://www.w3.org/2000/svg" viewBox="0 0 550.01 173.46"><defs><style>.cls-1{fill:#fff;}</style></defs><title>logo_white</title><path class="cls-1" d="M108.79,58.67v52.59C96,119.64,82,124.4,63.93,124.4,29.58,124.4,0,99.42,0,62.28,0,24.81,30.07,0,63.93,0c17.75,0,30.4,4.93,42.72,12.49L97.29,28.92c-9.7-6.24-21.2-10-32.38-10C37.47,18.9,22,38.29,22,62.28c0,25.64,18.9,43.88,42.73,43.88,10.35,0,17.25-1.81,24.32-5.75V76.75H61V58.67Z"/><path class="cls-1" d="M168.29,122.43v-6.74c-5.26,5.1-11.51,8.06-20.38,8.06-13.64,0-24.65-8.06-24.65-22.19,0-12.49,10-21.86,25.47-21.86a40.14,40.14,0,0,1,18.9,4.44v-3c0-10.84-5.75-15.61-16.93-15.61a62.55,62.55,0,0,0-17.42,3l-2.13-14a86,86,0,0,1,22.51-3.62c22,0,32.37,10.36,32.37,30.9v40.59Zm-.66-26.29c-4.93-3.29-8.38-4.77-14.46-4.77-7.07,0-12.33,3.78-12.33,10,0,6.41,4.6,10.18,12.65,10.18a17.31,17.31,0,0,0,14.14-6.73Z"/><path class="cls-1" d="M223.51,107h36v15.45H197.38l-.83-2.46L233.2,67.71H199.68V52.26H259.5l.82,2.46Z"/><path class="cls-1" d="M293.19,107h36v15.45H267.06l-.83-2.46,36.65-52.26H269.36V52.26h59.82l.82,2.46Z"/><path class="cls-1" d="M383.08,122.43v-6.74c-5.26,5.1-11.5,8.06-20.38,8.06-13.64,0-24.65-8.06-24.65-22.19,0-12.49,10-21.86,25.47-21.86a40.11,40.11,0,0,1,18.9,4.44v-3c0-10.84-5.75-15.61-16.92-15.61a62.55,62.55,0,0,0-17.42,3l-2.14-14a86,86,0,0,1,22.51-3.62c22,0,32.38,10.36,32.38,30.9v40.59Zm-.66-26.29c-4.93-3.29-8.38-4.77-14.46-4.77-7.06,0-12.32,3.78-12.32,10,0,6.41,4.6,10.18,12.65,10.18a17.28,17.28,0,0,0,14.13-6.73Z"/><path class="cls-1" d="M436.66,76.25v46.18H417.92V52.26H436v11.5c6.57-8.71,14.13-12.82,25-12.82V69.35C450.13,68.2,440.93,70.17,436.66,76.25Z"/><circle class="cls-1" cx="486.18" cy="60.51" r="9.64"/><circle class="cls-1" cx="513.21" cy="60.51" r="9.64"/><circle class="cls-1" cx="540.24" cy="60.51" r="9.64"/><circle class="cls-1" cx="486.18" cy="87.33" r="9.64"/><circle class="cls-1" cx="513.21" cy="87.33" r="9.64"/><circle class="cls-1" cx="486.18" cy="114.15" r="9.64"/><path class="cls-1" d="M174.07,166.16v-1.3a5.68,5.68,0,0,1-4.18,1.56c-3.91,0-6.55-3-6.55-7.17a7.1,7.1,0,0,1,6.75-7.27,5.65,5.65,0,0,1,3.84,1.24V142.27h3.69v23.89Zm-.14-9.62a4.17,4.17,0,0,0-3.25-1.63c-2.09,0-3.65,1.57-3.65,4.27,0,2.55,1.33,4.27,3.71,4.27a3.86,3.86,0,0,0,3.19-1.56Z"/><path class="cls-1" d="M193.85,160.33H184.2c.29,1.95,1.47,3.19,4.34,3.19a15,15,0,0,0,4-.75l.45,2.87a20.21,20.21,0,0,1-4.85.78c-5.22,0-7.63-3.23-7.63-7.17,0-3.75,2.51-7.27,7-7.27,4.17,0,6.36,3,6.36,6.68A9.53,9.53,0,0,1,193.85,160.33ZM190.66,158c-.17-1.89-1.28-3.13-3.13-3.13s-3,1.14-3.26,3.13Z"/><path class="cls-1" d="M201.15,166.42a9.38,9.38,0,0,1-5.51-1.83l1.44-2.64a7.16,7.16,0,0,0,4,1.63c1.37,0,2-.55,2-1.43,0-2.22-6.61-1.34-6.61-5.77,0-2.51,2.15-4.4,5.31-4.4a9.62,9.62,0,0,1,4.56,1.31l-1.14,2.7a7.09,7.09,0,0,0-3.58-1.21c-1.24,0-1.83.59-1.83,1.31,0,2,6.75,1.27,6.75,5.9C206.53,164.53,204.25,166.42,201.15,166.42Z"/><path class="cls-1" d="M222.11,166.52h-.65l-7.21-14.28h4.14l3.52,8.28,3.52-8.28h4Z"/><path class="cls-1" d="M233.16,149.6a2.19,2.19,0,0,1,0-4.37,2.19,2.19,0,0,1,0,4.37Zm-1.86,16.56V152.24H235v13.92Z"/><path class="cls-1" d="M248.38,166.16v-8.61c0-1.76-.65-2.51-2.12-2.51a5.39,5.39,0,0,0-3.68,2v9.16h-3.72V152.24h3.59v2.32A7.28,7.28,0,0,1,247.6,152c3.06,0,4.49,1.92,4.49,4.66v9.52Z"/><path class="cls-1" d="M260,166.42a9.36,9.36,0,0,1-5.51-1.83l1.43-2.64a7.21,7.21,0,0,0,4,1.63c1.37,0,2-.55,2-1.43,0-2.22-6.62-1.34-6.62-5.77,0-2.51,2.16-4.4,5.32-4.4a9.66,9.66,0,0,1,4.56,1.31L264,156a7.09,7.09,0,0,0-3.59-1.21c-1.23,0-1.82.59-1.82,1.31,0,2,6.75,1.27,6.75,5.9C265.33,164.53,263,166.42,260,166.42Z"/><path class="cls-1" d="M285.21,166.16v-1.3a5.66,5.66,0,0,1-4.18,1.56c-3.91,0-6.55-3-6.55-7.17a7.1,7.1,0,0,1,6.75-7.27,5.69,5.69,0,0,1,3.85,1.24V142.27h3.68v23.89Zm-.13-9.62a4.21,4.21,0,0,0-3.26-1.63c-2.09,0-3.65,1.57-3.65,4.27,0,2.55,1.33,4.27,3.71,4.27a3.89,3.89,0,0,0,3.2-1.56Z"/><path class="cls-1" d="M292.15,149.37l-.39-.58a6.9,6.9,0,0,0,2-3,2,2,0,0,1-2-2,1.89,1.89,0,0,1,1.89-1.89,2.11,2.11,0,0,1,2.12,2.34A6.3,6.3,0,0,1,292.15,149.37Z"/><path class="cls-1" d="M303.62,166.42a7.22,7.22,0,1,1,7.24-7.24A7,7,0,0,1,303.62,166.42Zm0-11.6c-2.21,0-3.62,1.69-3.62,4.36s1.41,4.4,3.62,4.4,3.59-1.69,3.59-4.4S305.8,154.82,303.62,154.82Z"/><path class="cls-1" d="M317.6,157v9.16h-3.71V152.24h3.58v2.28a5.77,5.77,0,0,1,5-2.54v3.65C320.28,155.4,318.45,155.79,317.6,157Z"/><path class="cls-1" d="M326.8,149.6a2.19,2.19,0,0,1,0-4.37,2.19,2.19,0,0,1,0,4.37Zm-1.86,16.56V152.24h3.71v13.92Z"/><path class="cls-1" d="M339.7,173.46a18.46,18.46,0,0,1-4.63-.68l.36-3.26a12.33,12.33,0,0,0,3.69.65c2.31,0,3.38-.91,3.38-3.23v-1.69a5.94,5.94,0,0,1-3.74,1.17c-3.91,0-6.85-2.64-6.85-7,0-4.11,3.13-7.4,6.81-7.4a6.16,6.16,0,0,1,3.92,1.27v-1h3.55v14.64C346.19,171.73,343.74,173.46,339.7,173.46Zm2.8-17.11a4.26,4.26,0,0,0-3.12-1.4c-2.25,0-3.78,1.76-3.78,4.46,0,2.35,1.36,4.11,3.87,4.11a3.87,3.87,0,0,0,3-1.4Z"/><path class="cls-1" d="M351.76,149.6a2.19,2.19,0,0,1,0-4.37,2.19,2.19,0,1,1,0,4.37Zm-1.86,16.56V152.24h3.72v13.92Z"/><path class="cls-1" d="M367,166.16v-8.61c0-1.76-.65-2.51-2.12-2.51a5.39,5.39,0,0,0-3.68,2v9.16h-3.71V152.24h3.58v2.32A7.32,7.32,0,0,1,366.2,152c3.06,0,4.5,1.92,4.5,4.66v9.52Z"/><path class="cls-1" d="M386.77,160.33h-9.65c.29,1.95,1.47,3.19,4.33,3.19a15,15,0,0,0,4.05-.75l.45,2.87a20.21,20.21,0,0,1-4.85.78c-5.22,0-7.63-3.23-7.63-7.17,0-3.75,2.51-7.27,7-7.27,4.17,0,6.35,3,6.35,6.68A10.58,10.58,0,0,1,386.77,160.33Zm-3.2-2.32a3,3,0,0,0-3.13-3.13c-1.82,0-3,1.14-3.26,3.13Z"/><rect class="cls-1" x="0.72" y="156.95" width="143.77" height="3"/><rect class="cls-1" x="406.23" y="156.95" width="143.77" height="3"/></svg>