<?xml version="1.0" encoding="utf-8"?>
<!-- Generator: Adobe Illustrator 23.0.3, SVG Export Plug-In . SVG Version: 6.00 Build 0)  -->
<svg version="1.1" id="Calque_1" xmlns="http://www.w3.org/2000/svg" xmlns:xlink="http://www.w3.org/1999/xlink" x="0px" y="0px"
	 viewBox="0 0 198.4 226.8" style="enable-background:new 0 0 198.4 226.8;" xml:space="preserve">
<style type="text/css">
	.st0{fill:none;stroke:#897549;stroke-width:16;stroke-miterlimit:10;}
	.st1{fill:none;stroke:#000000;stroke-width:19.896;stroke-linecap:round;stroke-miterlimit:10;}
	.st2{fill:none;stroke:#000000;stroke-width:14.7614;stroke-linecap:round;stroke-miterlimit:10;}
	.st3{fill:none;stroke:#000000;stroke-width:14.879;stroke-linecap:round;stroke-linejoin:round;stroke-miterlimit:10;}
	.st4{fill:none;stroke:#000000;stroke-width:14.8785;stroke-linecap:round;stroke-miterlimit:10;}
	.st5{stroke:#000000;stroke-width:4;stroke-miterlimit:10;}
</style>
<line class="st0" x1="155.1" y1="86.3" x2="169.4" y2="68.2"/>
<polyline class="st0" points="110.8,68.1 110.4,36.2 96.8,36.2 125.8,36.1 94,36.1 "/>
<path class="st0" d="M62.9,172.7c0,0,21.2,24.8,46.9,21.5c25.7-3.3,53.8-10.8,61.6-59.3S129,69.7,110.8,68.1
	c-18.2-1.6-41.7,15-46.3,20.5"/>
<title>winecheese</title>
<g>
	<path d="M-2187.6,88.8c-1.4-16.4-10.9-64.9-11-65.3c-0.3-1.6-1.8-2.8-3.4-2.8h-93.6c-1.6,0-3.1,1.2-3.4,2.8v0.2v0.1
		c-0.1,0.5-0.4,2.3-0.9,4.6c-2.5,12.9-9,47.1-10.1,60.5c-1.2,15.1,4.1,30.1,14.6,41.1c11.2,12.1,26.8,19.4,43.2,20.3v52.1h-33.4
		c-1.9,0-3.5,1.6-3.5,3.5s1.6,3.5,3.5,3.5h73.7c1.9,0,3.5-1.6,3.5-3.5s-1.6-3.5-3.5-3.5h-33.4v-52.1c16.4-0.9,32.1-8.2,43.2-20.3
		C-2191.8,118.9-2186.5,103.9-2187.6,88.8z M-2206.6,124.5L-2206.6,124.5l-0.7,0.7c-10.7,11.6-25.9,18.2-41.6,18.2
		c-14.3,0-28-5.4-38.5-15.1c-1.1-1-2.1-2-3.1-3.1c-9.1-9.6-13.7-22.7-12.7-35.8c1.2-14.1,8.7-52.9,10.4-61.8h88
		c3,15.6,9.3,49,10.4,61.7C-2193.5,102.2-2197.9,115-2206.6,124.5z"/>
	<path d="M-2209.1,71.5c0.3,1.6,1.7,2.8,3.3,2.8c0.2,0,0.4,0,0.6,0c1.8-0.3,3-2,2.7-3.9l-5.2-30c-0.3-1.8-2-3-3.9-2.7
		c-1.8,0.3-3,2-2.7,3.9L-2209.1,71.5z"/>
</g>
<path class="st1" d="M-2305.4,88.3c0,0,39.8-16.8,55.8-2.1s52.8,6.2,57.5-1.5"/>
<path class="st2" d="M-1804.6,80.3c0,0,20.7-13.6,30.5,1.8c9.8,15.3,29.5,9.6,31.5,2.5"/>
<path class="st3" d="M-1747.7,28.1h-25.5h-1.4h-25.5c0,0-22.6,116.1,25.9,120.6l0,0c0.1,0,0.2,0,0.2,0c0.1,0,0.2,0,0.2,0l0,0
	C-1725,144.2-1747.7,28.1-1747.7,28.1z"/>
<line class="st3" x1="-1773.6" y1="148.7" x2="-1773.6" y2="206.9"/>
<line class="st3" x1="-1799.6" y1="206.9" x2="-1747.1" y2="206.9"/>
<path class="st4" d="M-1754.9,42.7c0,0,2.4,16.7,2.8,25.8"/>
<circle cx="-1787.6" cy="99.8" r="2.2"/>
<circle cx="-1776.9" cy="112.6" r="2.2"/>
<circle cx="-1762.1" cy="119.9" r="2.2"/>
<circle cx="-1769.3" cy="99.4" r="2.2"/>
<circle cx="-1786.3" cy="87" r="2.2"/>
<circle cx="-1792.8" cy="111.3" r="2.2"/>
<circle cx="-1809.4" cy="93.3" r="2.2"/>
<circle cx="-1780.1" cy="130.8" r="2.2"/>
<circle cx="-1794.1" cy="126.4" r="2.2"/>
<circle cx="-1753" cy="106.4" r="2.2"/>
<circle cx="-1755.7" cy="121.9" r="2.2"/>
<circle cx="-1762" cy="110.8" r="2.2"/>
<circle cx="-1770.8" cy="132" r="2.2"/>
<circle cx="-1763.7" cy="139.7" r="2.2"/>
<circle cx="-1780.2" cy="144" r="2.2"/>
<circle cx="-1759.2" cy="95.6" r="2.2"/>
<path class="st3" d="M534.5,106l3.3-2.9c3.6-3.2,4.8-8.3,2.9-12.7l-1.7-4.1c-2.4-5.7,0.3-12.2,6-14.6c0.4-0.2,0.8-0.3,1.3-0.4
	l4.2-1.2c4.6-1.3,7.8-5.3,8.1-10.1l0.2-4.4c0.3-5.9,5.2-10.6,11.1-10.6c0.7,0,1.3,0.1,2,0.2l4.3,0.8c4.7,0.8,9.5-1.4,11.8-5.6
	l2.1-3.9c3-5.4,9.7-7.4,15.1-4.4c0.4,0.2,0.8,0.5,1.2,0.8l3.6,2.6c3.9,2.8,9.1,2.8,13,0l3.6-2.5c5-3.6,12-2.5,15.6,2.5
	c0.3,0.4,0.5,0.8,0.8,1.2l2.1,3.9c2,3.6,5.7,5.9,9.8,5.9c0.6,0,1.2-0.1,1.8-0.2l4.2-0.7c0.6-0.1,1.3-0.2,1.9-0.2
	c6,0,10.9,4.7,11.1,10.6l0.2,4.4c0.2,4.8,3.5,8.9,8.1,10.2l4.2,1.2c5.9,1.7,9.4,7.8,7.7,13.8c-0.1,0.5-0.3,0.9-0.5,1.3l-1.7,4
	c-1.9,4.4-0.7,9.6,2.9,12.7l3.3,2.9c4.6,4.1,5.1,11.2,1,15.8c-0.3,0.3-0.6,0.7-1,1l-3.3,2.9c-3.6,3.2-4.8,8.3-2.9,12.7l1.7,4.1
	c2.4,5.7-0.3,12.2-6,14.6c-0.4,0.2-0.8,0.3-1.3,0.4l-4.2,1.2c-4.6,1.2-7.9,5.2-8.3,10l-0.2,4.4c-0.3,5.9-5.2,10.6-11.1,10.6
	c-0.7,0-1.3-0.1-2-0.2l-4.3-0.7c-4.7-0.8-9.5,1.4-11.8,5.6l-2.1,3.8c-3,5.4-9.7,7.4-15.1,4.4c-0.4-0.2-0.8-0.5-1.2-0.8l-3.6-2.6
	c-3.9-2.8-9.1-2.8-13,0l-3.6,2.5c-5,3.6-12,2.5-15.6-2.5c-0.3-0.4-0.6-0.8-0.8-1.3l-2.1-3.9c-2.3-4.2-7-6.5-11.7-5.7l-4.1,0.7
	c-0.6,0.1-1.3,0.2-1.9,0.2c-6,0-10.9-4.7-11.1-10.6l-0.2-4.4c-0.2-4.8-3.5-8.9-8.1-10.2l-4.2-1.2c-5.9-1.7-9.4-7.8-7.7-13.8
	c0.1-0.5,0.3-0.9,0.5-1.3l1.7-4c1.9-4.4,0.7-9.6-2.9-12.7l-3.3-2.9c-4.6-4.2-4.9-11.2-0.7-15.8C533.8,106.6,534.1,106.3,534.5,106z"
	/>
<path class="st3" d="M-1407.6,106l3.3-2.9c3.6-3.2,4.8-8.3,2.9-12.7l-1.7-4.1c-2.4-5.7,0.3-12.2,6-14.6c0.4-0.2,0.8-0.3,1.3-0.4
	l4.2-1.2c4.6-1.3,7.8-5.3,8.1-10.1l0.2-4.4c0.3-5.9,5.2-10.6,11.1-10.6c0.7,0,1.3,0.1,2,0.2l4.3,0.8c4.7,0.8,9.5-1.4,11.8-5.6
	l2.1-3.9c3-5.4,9.7-7.4,15.1-4.4c0.4,0.2,0.8,0.5,1.2,0.8l3.6,2.6c3.9,2.8,9.1,2.8,13,0l3.6-2.5c5-3.6,12-2.5,15.6,2.5
	c0.3,0.4,0.5,0.8,0.8,1.2l2.1,3.9c2,3.6,5.7,5.9,9.8,5.9c0.6,0,1.2-0.1,1.8-0.2l4.2-0.7c0.6-0.1,1.3-0.2,1.9-0.2
	c6,0,10.9,4.7,11.1,10.6l0.2,4.4c0.2,4.8,3.5,8.9,8.1,10.2l4.2,1.2c5.9,1.7,9.4,7.8,7.7,13.8c-0.1,0.5-0.3,0.9-0.5,1.3l-1.7,4
	c-1.9,4.4-0.7,9.6,2.9,12.7l3.3,2.9c4.6,4.1,5.1,11.2,1,15.8c-0.3,0.3-0.6,0.7-1,1l-3.3,2.9c-3.6,3.2-4.8,8.3-2.9,12.7l1.7,4.1
	c2.4,5.7-0.3,12.2-6,14.6c-0.4,0.2-0.8,0.3-1.3,0.4l-4.2,1.2c-4.6,1.2-7.9,5.2-8.3,10l-0.2,4.4c-0.3,5.9-5.2,10.6-11.1,10.6
	c-0.7,0-1.3-0.1-2-0.2l-4.3-0.7c-4.7-0.8-9.5,1.4-11.8,5.6l-2.1,3.8c-3,5.4-9.7,7.4-15.1,4.4c-0.4-0.2-0.8-0.5-1.2-0.8l-3.6-2.6
	c-3.9-2.8-9.1-2.8-13,0l-3.6,2.5c-5,3.6-12,2.5-15.6-2.5c-0.3-0.4-0.6-0.8-0.8-1.3l-2.1-3.9c-2.3-4.2-7-6.5-11.7-5.7l-4.1,0.7
	c-0.6,0.1-1.3,0.2-1.9,0.2c-6,0-10.9-4.7-11.1-10.6l-0.2-4.4c-0.2-4.8-3.5-8.9-8.1-10.2l-4.2-1.2c-5.9-1.7-9.4-7.8-7.7-13.8
	c0.1-0.5,0.3-0.9,0.5-1.3l1.7-4c1.9-4.4,0.7-9.6-2.9-12.7l-3.3-2.9c-4.6-4.2-4.9-11.2-0.7-15.8
	C-1408.2,106.6-1407.9,106.3-1407.6,106z"/>
<g>
	<path d="M-1347.4,114.2c-10.4,0-16.3-8.5-16.3-17.7s6-17.7,16.5-17.7s16.3,8.5,16.3,17.7S-1336.9,114.2-1347.4,114.2z
		 M-1350.3,149.6l-6.7-5.6l53.8-65.7l6.7,5.6L-1350.3,149.6z M-1347.3,87.6c-3.2,0-5.1,3.3-5.1,9s1.8,9,5.1,9c3.3,0,5.2-3.3,5.2-9
		S-1344,87.6-1347.3,87.6z M-1306.2,148.9c-10.6,0-16.3-8.5-16.3-17.7c0-9.1,6-17.7,16.5-17.7c10.6,0,16.3,8.6,16.3,17.7
		C-1289.7,140.4-1295.7,148.9-1306.2,148.9z M-1306.1,122.3c-3.3,0-5.2,3.3-5.2,9c0,5.6,1.8,9.1,5.2,9.1c3.2,0,5.1-3.4,5.1-9.1
		C-1301.1,125.6-1302.9,122.3-1306.1,122.3z"/>
</g>
<path class="st5" d="M-833.7,191.4h-26.9v-9.2l21.2-21.2c5.2,4.5,11.7,6.8,18.3,6.8c7.5,0,15.1-2.9,21-8.8
	c15.3-15.3,14.5-51.1,14.5-52.6c0-1-0.9-1.9-1.9-1.9c-1.5,0-37.8-0.3-52.6,14.5c-5.5,5.5-8.6,12.8-8.8,20.4
	c-0.1,7,2.3,13.6,6.8,18.8l-18.5,18.5v-59.3c14.7-1,26.4-13.7,26.4-29.2c0-21.7-25.8-46.4-26.9-47.4c-0.8-0.7-1.9-0.7-2.7,0
	c-1.1,1.1-26.9,26.6-27,47.4c0,7.8,2.9,15.1,8.3,20.7c4.9,5.1,11.2,8,18.1,8.5v59.3l-18.5-18.5c4.5-5.2,6.9-11.8,6.8-18.8
	c-0.1-7.7-3.3-14.9-8.8-20.4c-14.7-14.7-51-14.5-52.6-14.5c-1,0-1.9,0.8-1.9,1.9c0,1.5-0.9,37.2,14.5,52.6c5.8,5.8,13.4,8.8,21,8.8
	c6.6,0,13.1-2.3,18.3-6.8l21.3,21.2v9.2h-27c-1.1,0-1.9,0.9-1.9,1.9c0,1.1,0.9,1.9,1.9,1.9h57.8c1.1,0,1.9-0.9,1.9-1.9
	C-831.7,192.3-832.6,191.4-833.7,191.4z M-836.6,158.3l5.7-5.7l30.6,0.8c-0.8,1.1-1.6,2-2.5,2.9C-812.2,165.7-827,166.4-836.6,158.3
	z M-791.8,131.7l-17.8-0.5l20.1-20.1C-789.7,115.9-790.2,123.7-791.8,131.7z M-797.9,149.5l-29.3-0.8l13.7-13.7l20.7,0.5
	C-793.9,140.5-795.5,145.3-797.9,149.5z M-812.3,128.5l-0.5-17.6c8-1.6,15.7-2.2,20.5-2.4L-812.3,128.5z M-816.1,132.3l-13.7,13.7
	l-0.7-29.1c4.2-2.2,9-3.9,13.9-5.1L-816.1,132.3z M-845,139.5c0.1-6.7,2.8-13,7.6-17.8c0.9-0.9,1.9-1.7,3-2.5l0.8,30.5l-5.7,5.7
	C-843.1,151.1-845.1,145.5-845,139.5z M-879.3,66.6l14.9,14.1v19.4L-885.6,80C-884.2,75.5-882,70.9-879.3,66.6z M-839.4,80
	l-21.2,20.2V80.8l15-14.3C-842.9,70.8-840.7,75.4-839.4,80z M-864.4,75.4l-12.8-12.1c4.5-6.8,9.6-12.7,12.8-16.2V75.4z
	 M-860.6,113.5v-8.1l22.2-21.1c0.2,1.3,0.3,2.6,0.3,3.9C-838.1,101.6-848,112.5-860.6,113.5z M-847.6,63.1l-12.9,12.3V47
	C-857.3,50.4-852.2,56.3-847.6,63.1z M-879.8,106.2c-4.6-4.8-7.2-11.2-7.2-18c0-1.3,0.1-2.5,0.3-3.8l22.1,21v8.1
	C-870.2,113.1-875.6,110.5-879.8,106.2z M-880.1,139.5c0.1,6-1.9,11.6-5.6,16l-5.7-5.7l0.8-30.5c1.1,0.8,2.1,1.6,3,2.5
	C-882.9,126.6-880.2,132.9-880.1,139.5z M-932.4,135.6l20.7-0.5l13.7,13.7l-29.3,0.8C-929.5,145.3-931.2,140.5-932.4,135.6z
	 M-932.8,108.5c4.8,0.2,12.5,0.8,20.5,2.4l-0.5,17.6L-932.8,108.5z M-935.6,111.2l20.1,20.1l-17.8,0.5
	C-934.9,123.7-935.4,115.9-935.6,111.2z M-909,132.3l0.5-20.5c4.9,1.2,9.8,2.9,13.9,5.1l-0.8,29.1L-909,132.3z M-922.3,156.3
	c-0.9-0.9-1.7-1.9-2.5-2.9l30.6-0.8l5.7,5.7C-898.1,166.4-912.9,165.7-922.3,156.3z"/>
<path class="st3" d="M-483.4,106l3.3-2.9c3.6-3.2,4.8-8.3,2.9-12.7l-1.7-4.1c-2.4-5.7,0.3-12.2,6-14.6c0.4-0.2,0.8-0.3,1.3-0.4
	l4.2-1.2c4.6-1.3,7.8-5.3,8.1-10.1l0.2-4.4c0.3-5.9,5.2-10.6,11.1-10.6c0.7,0,1.3,0.1,2,0.2l4.3,0.8c4.7,0.8,9.5-1.4,11.8-5.6
	l2.1-3.9c3-5.4,9.7-7.4,15.1-4.4c0.4,0.2,0.8,0.5,1.2,0.8l3.6,2.6c3.9,2.8,9.1,2.8,13,0l3.6-2.5c5-3.6,12-2.5,15.6,2.5
	c0.3,0.4,0.5,0.8,0.8,1.2l2.1,3.9c2,3.6,5.7,5.9,9.8,5.9c0.6,0,1.2-0.1,1.8-0.2l4.2-0.7c0.6-0.1,1.3-0.2,1.9-0.2
	c6,0,10.9,4.7,11.1,10.6l0.2,4.4c0.2,4.8,3.5,8.9,8.1,10.2l4.2,1.2c5.9,1.7,9.4,7.8,7.7,13.8c-0.1,0.5-0.3,0.9-0.5,1.3l-1.7,4
	c-1.9,4.4-0.7,9.6,2.9,12.7l3.3,2.9c4.6,4.1,5.1,11.2,1,15.8c-0.3,0.3-0.6,0.7-1,1l-3.3,2.9c-3.6,3.2-4.8,8.3-2.9,12.7l1.7,4.1
	c2.4,5.7-0.3,12.2-6,14.6c-0.4,0.2-0.8,0.3-1.3,0.4l-4.2,1.2c-4.6,1.2-7.9,5.2-8.3,10l-0.2,4.4c-0.3,5.9-5.2,10.6-11.1,10.6
	c-0.7,0-1.3-0.1-2-0.2l-4.3-0.7c-4.7-0.8-9.5,1.4-11.8,5.6l-2.1,3.8c-3,5.4-9.7,7.4-15.1,4.4c-0.4-0.2-0.8-0.5-1.2-0.8l-3.6-2.6
	c-3.9-2.8-9.1-2.8-13,0l-3.6,2.5c-5,3.6-12,2.5-15.6-2.5c-0.3-0.4-0.6-0.8-0.8-1.3l-2.1-3.9c-2.3-4.2-7-6.5-11.7-5.7l-4.1,0.7
	c-0.6,0.1-1.3,0.2-1.9,0.2c-6,0-10.9-4.7-11.1-10.6l-0.2-4.4c-0.2-4.8-3.5-8.9-8.1-10.2l-4.2-1.2c-5.9-1.7-9.4-7.8-7.7-13.8
	c0.1-0.5,0.3-0.9,0.5-1.3l1.7-4c1.9-4.4,0.7-9.6-2.9-12.7l-3.3-2.9c-4.6-4.2-4.9-11.2-0.7-15.8C-484,106.6-483.7,106.3-483.4,106z"
	/>
<g>
	<path d="M-425.4,130.5l-18.9-17v16.4h-7.3V98.2l1-0.2l18.7,16.9V98.6h7.3v31.8L-425.4,130.5z"/>
	<path d="M-417.8,129.9V98.6h19.9v6.7h-12.6v5.6h11.5v6.3h-11.5v6.1h12.6v6.6H-417.8z"/>
	<path d="M-362.5,130.5l-1,0.1l-9.6-18.8l-9.5,18.8l-0.9-0.1L-395,98.6h8.3l5,16.5l8.2-16.7h0.8l8.2,16.6l5-16.3h8.2L-362.5,130.5z"
		/>
</g>
<path d="M176.2,79.8l-5.3,5.3c25.4,33.9,18.6,81.9-15.3,107.3c-11.8,8.9-26,14.2-40.8,15.2c-1.7,0.1-3.5,0.2-5.2,0.2
	c-21.7,0-42.4-9.1-56.9-25.3c-1.7-2-1.5-5,0.5-6.7c1.9-1.7,4.8-1.5,6.6,0.3c24.9,27.5,67.3,29.7,94.9,4.8
	c26.9-24.3,29.7-65.5,6.3-93.2c-1.6-1.9-1.5-4.7,0.3-6.4l8.3-8.3c1.2-1.4,1.1-3.5-0.2-4.8c-1.3-1.2-3.2-1.2-4.5,0l-8.6,8.6
	c-1.7,1.7-4.3,1.9-6.2,0.4c-9.5-7.2-20.8-11.6-32.7-13c-2.4-0.3-4.2-2.3-4.2-4.7V44.3c0-2.6,2.1-4.8,4.7-4.8h0.1h4.4
	c1.9,0,3.4-1.5,3.4-3.4s-1.5-3.4-3.4-3.4h-25c-1.9,0-3.4,1.5-3.4,3.4s1.5,3.4,3.4,3.4h4.4c2.6,0,4.8,2.1,4.8,4.8v15.4
	c0,2.4-1.8,4.4-4.2,4.7C87,66.2,72.7,73.2,61.9,84.2c-1.8,1.9-4.9,1.9-6.7,0.1c-1.9-1.8-1.9-4.9-0.1-6.7c11.3-11.6,26-19.3,42-22V49
	c-7.1-0.6-12.3-6.9-11.7-14c0.6-6.3,5.7-11.3,12.1-11.7h25c7.1,0.4,12.5,6.5,12.1,13.6c-0.4,6.4-5.3,11.5-11.7,12.1v6.4
	c10.6,1.8,20.8,5.8,29.7,11.8l5.7-5.7c5-5,13.2-5,18.2,0S181.1,74.7,176.2,79.8L176.2,79.8L176.2,79.8z M20.2,106.7
	c0,2.6,2.1,4.8,4.8,4.8h33c2.6,0,4.8-2.1,4.8-4.8S60.6,102,58,102H25C22.4,102,20.2,104.1,20.2,106.7L20.2,106.7z M74.3,129.8
	c0-2.6-2.1-4.8-4.8-4.8h-33c-2.6,0-4.8,2.1-4.8,4.8c0,2.7,2.1,4.8,4.8,4.8h33C72.1,134.5,74.3,132.4,74.3,129.8z M25,157.6h33
	c2.6,0,4.8-2.1,4.8-4.8c0-2.6-2.1-4.8-4.8-4.8H25c-2.6,0-4.8,2.1-4.8,4.8S22.4,157.6,25,157.6z M136,111.4l-12.2,12.2
	c4.1,7.9,1.1,17.6-6.7,21.7s-17.6,1.1-21.7-6.7c-4.1-7.9-1.1-17.6,6.7-21.7c4.7-2.5,10.3-2.5,15,0l12.2-12.2c1.9-1.9,4.9-1.9,6.7,0
	C137.8,106.5,137.8,109.6,136,111.4z M116.1,131.1c0-3.6-2.9-6.5-6.5-6.5s-6.5,2.9-6.5,6.5c0,3.6,2.9,6.5,6.5,6.5
	S116.1,134.7,116.1,131.1z M109.6,187.7c31.3,0,56.6-25.3,56.7-56.5S141,74.5,109.8,74.5c-15,0-29.5,5.9-40.1,16.6
	c-1.9,1.9-1.9,4.9,0,6.7c1.9,1.9,4.9,1.9,6.7,0c18.4-18.4,48.2-18.4,66.6-0.1s18.4,48.2,0.1,66.6s-48.2,18.4-66.6,0.1
	c0,0,0,0-0.1-0.1c-1.9-1.9-4.9-1.9-6.7,0s-1.9,4.9,0,6.7C80.2,181.7,94.6,187.7,109.6,187.7z"/>
<g>
	<path d="M572.6,129.9V98.8h19.7v6.6h-12.5v5.6h11.4v6.3h-11.4v6.1h12.5v6.6h-19.7V129.9z"/>
	<path d="M624.6,130.5l-18.7-16.8v16.2h-7.2V98.4l1-0.2l18.5,16.7V98.8h7.2v31.5L624.6,130.5z"/>
	<path d="M641.6,130.2c-3.6,0-5.7-0.2-9.5-0.5V99.1c3.6-0.4,6.1-0.5,9.2-0.5c12.9,0,18.9,6.7,18.9,15.5
		C660.2,123.3,654.5,130.2,641.6,130.2z M642.3,105.1c-1.2,0-1.9,0-3,0.2v18.3c1.3,0.1,1.9,0.2,3.4,0.2c6.8,0,9.8-3.8,9.8-9.6
		C652.6,108.5,649,105.1,642.3,105.1z"/>
</g>
</svg>
