<?xml version="1.0" encoding="utf-8"?>
<!-- Generator: Adobe Illustrator 23.0.3, SVG Export Plug-In . SVG Version: 6.00 Build 0)  -->
<svg version="1.1" id="Calque_1" xmlns="http://www.w3.org/2000/svg" xmlns:xlink="http://www.w3.org/1999/xlink" x="0px" y="0px"
	 viewBox="0 0 198.4 226.8" style="enable-background:new 0 0 198.4 226.8;" xml:space="preserve">
<style type="text/css">
	.st0{fill:#C8BD2C;}
	.st1{fill:none;stroke:#000000;stroke-width:8;stroke-linecap:round;stroke-miterlimit:10;}
	.st2{fill:none;stroke:#000000;stroke-width:14.7614;stroke-linecap:round;stroke-miterlimit:10;}
	.st3{fill:none;stroke:#000000;stroke-width:14.879;stroke-linecap:round;stroke-linejoin:round;stroke-miterlimit:10;}
	.st4{fill:none;stroke:#000000;stroke-width:14.8785;stroke-linecap:round;stroke-miterlimit:10;}
	.st5{stroke:#000000;stroke-width:4;stroke-miterlimit:10;}
</style>
<title>winecheese</title>
<g id="XMLID_1_">
	<g>
		<path class="st0" d="M149.3,89.3c1,12.9-3.5,25.7-12.2,35.2l-0.7,0.7c-10.7,11.6-25.9,18.2-41.6,18.2c-14.3,0-28-5.4-38.5-15.1
			c-1.1-1-2.1-2-3.1-3.1c-9.1-9.6-13.7-22.7-12.7-35.8c0-0.6,0.1-1.3,0.2-2c8.7-3.3,39.8-13.8,53.5-1.2c14.3,13.1,45,7.8,54.9,1
			C149.2,88,149.2,88.7,149.3,89.3z"/>
		<path d="M149.1,87.2c-1.5-13.9-7.3-44.8-10.2-59.6h-88c-1.6,8.5-8.6,44.3-10.2,59.8c-0.1,0.7-0.2,1.4-0.2,2
			c-1,13.1,3.6,26.2,12.7,35.8c1,1.1,2,2.1,3.1,3.1c10.5,9.7,24.2,15.1,38.5,15.1c15.7,0,30.9-6.6,41.6-18.2l0.7-0.7
			c8.7-9.5,13.2-22.3,12.2-35.2C149.2,88.7,149.2,88,149.1,87.2z M156.1,88.8c1.2,15.1-4.1,30.1-14.6,41.1
			c-11.1,12.1-26.8,19.4-43.2,20.3v52.1h33.4c1.9,0,3.5,1.6,3.5,3.5c0,1.9-1.6,3.5-3.5,3.5H58c-1.9,0-3.5-1.6-3.5-3.5
			c0-1.9,1.6-3.5,3.5-3.5h33.4v-52.1C75,149.3,59.3,142,48.2,130c-10.5-11-15.8-26-14.6-41.1c1.1-13.4,7.6-47.6,10.1-60.5
			c0.5-2.3,0.8-4.1,0.9-4.6v-0.1v-0.2c0.3-1.6,1.8-2.8,3.4-2.8h93.7c1.6,0,3.1,1.2,3.4,2.8C145.2,23.9,154.7,72.4,156.1,88.8z"/>
		<path d="M141.2,70.4c0.3,1.9-0.9,3.6-2.7,3.9c-0.2,0-0.4,0-0.6,0c-1.6,0-3-1.2-3.3-2.8l-5.2-29.9c-0.3-1.9,0.9-3.6,2.7-3.9
			c1.9-0.3,3.6,0.9,3.9,2.7L141.2,70.4z"/>
	</g>
	<g>
		<path class="st1" d="M38.4,88.3c0,0,0.8-0.4,2.3-0.9c8.7-3.3,39.8-13.8,53.5-1.2c14.3,13.1,45,7.8,54.9,1c1.2-0.8,2.1-1.7,2.6-2.5
			"/>
	</g>
</g>
<path class="st2" d="M539.1,80.3c0,0,20.7-13.6,30.5,1.8c9.8,15.3,29.5,9.6,31.5,2.5"/>
<path class="st3" d="M596.1,28.1h-25.5h-1.4h-25.5c0,0-22.6,116.1,25.9,120.6l0,0c0.1,0,0.2,0,0.2,0c0.1,0,0.2,0,0.2,0l0,0
	C618.7,144.2,596.1,28.1,596.1,28.1z"/>
<line class="st3" x1="570.1" y1="148.7" x2="570.1" y2="206.9"/>
<line class="st3" x1="544.1" y1="206.9" x2="596.6" y2="206.9"/>
<path class="st4" d="M588.8,42.7c0,0,2.4,16.7,2.8,25.8"/>
<circle cx="556.2" cy="99.8" r="2.2"/>
<circle cx="566.9" cy="112.6" r="2.2"/>
<circle cx="581.7" cy="119.9" r="2.2"/>
<circle cx="574.5" cy="99.4" r="2.2"/>
<circle cx="557.4" cy="87" r="2.2"/>
<circle cx="550.9" cy="111.3" r="2.2"/>
<circle cx="534.3" cy="93.3" r="2.2"/>
<circle cx="563.6" cy="130.8" r="2.2"/>
<circle cx="549.7" cy="126.4" r="2.2"/>
<circle cx="590.7" cy="106.4" r="2.2"/>
<circle cx="588" cy="121.9" r="2.2"/>
<circle cx="581.8" cy="110.8" r="2.2"/>
<circle cx="572.9" cy="132" r="2.2"/>
<circle cx="580" cy="139.7" r="2.2"/>
<circle cx="563.5" cy="144" r="2.2"/>
<circle cx="584.6" cy="95.6" r="2.2"/>
<path class="st3" d="M2878.2,106l3.3-2.9c3.6-3.2,4.8-8.3,2.9-12.7l-1.7-4.1c-2.4-5.7,0.3-12.2,6-14.6c0.4-0.2,0.8-0.3,1.3-0.4
	l4.2-1.2c4.6-1.3,7.8-5.3,8.1-10.1l0.2-4.4c0.3-5.9,5.2-10.6,11.1-10.6c0.7,0,1.3,0.1,2,0.2l4.3,0.8c4.7,0.8,9.5-1.4,11.8-5.6
	l2.1-3.9c3-5.4,9.7-7.4,15.1-4.4c0.4,0.2,0.8,0.5,1.2,0.8l3.6,2.6c3.9,2.8,9.1,2.8,13,0l3.6-2.5c5-3.6,12-2.5,15.6,2.5
	c0.3,0.4,0.5,0.8,0.8,1.2l2.1,3.9c2,3.6,5.7,5.9,9.8,5.9c0.6,0,1.2-0.1,1.8-0.2l4.2-0.7c0.6-0.1,1.3-0.2,1.9-0.2
	c6,0,10.9,4.7,11.1,10.6l0.2,4.4c0.2,4.8,3.5,8.9,8.1,10.2l4.2,1.2c5.9,1.7,9.4,7.8,7.7,13.8c-0.1,0.5-0.3,0.9-0.5,1.3l-1.7,4
	c-1.9,4.4-0.7,9.6,2.9,12.7l3.3,2.9c4.6,4.1,5.1,11.2,1,15.8c-0.3,0.3-0.6,0.7-1,1l-3.3,2.9c-3.6,3.2-4.8,8.3-2.9,12.7l1.7,4.1
	c2.4,5.7-0.3,12.2-6,14.6c-0.4,0.2-0.8,0.3-1.3,0.4l-4.2,1.2c-4.6,1.2-7.9,5.2-8.3,10l-0.2,4.4c-0.3,5.9-5.2,10.6-11.1,10.6
	c-0.7,0-1.3-0.1-2-0.2l-4.3-0.7c-4.7-0.8-9.5,1.4-11.8,5.6l-2.1,3.8c-3,5.4-9.7,7.4-15.1,4.4c-0.4-0.2-0.8-0.5-1.2-0.8l-3.6-2.6
	c-3.9-2.8-9.1-2.8-13,0l-3.6,2.5c-5,3.6-12,2.5-15.6-2.5c-0.3-0.4-0.6-0.8-0.8-1.3l-2.1-3.9c-2.3-4.2-7-6.5-11.7-5.7l-4.1,0.7
	c-0.6,0.1-1.3,0.2-1.9,0.2c-6,0-10.9-4.7-11.1-10.6l-0.2-4.4c-0.2-4.8-3.5-8.9-8.1-10.2l-4.2-1.2c-5.9-1.7-9.4-7.8-7.7-13.8
	c0.1-0.5,0.3-0.9,0.5-1.3l1.7-4c1.9-4.4,0.7-9.6-2.9-12.7l-3.3-2.9c-4.6-4.2-4.9-11.2-0.7-15.8
	C2877.6,106.6,2877.9,106.3,2878.2,106z"/>
<path class="st3" d="M936.1,106l3.3-2.9c3.6-3.2,4.8-8.3,2.9-12.7l-1.7-4.1c-2.4-5.7,0.3-12.2,6-14.6c0.4-0.2,0.8-0.3,1.3-0.4
	l4.2-1.2c4.6-1.3,7.8-5.3,8.1-10.1l0.2-4.4c0.3-5.9,5.2-10.6,11.1-10.6c0.7,0,1.3,0.1,2,0.2L978,46c4.7,0.8,9.5-1.4,11.8-5.6
	l2.1-3.9c3-5.4,9.7-7.4,15.1-4.4c0.4,0.2,0.8,0.5,1.2,0.8l3.6,2.6c3.9,2.8,9.1,2.8,13,0l3.6-2.5c5-3.6,12-2.5,15.6,2.5
	c0.3,0.4,0.5,0.8,0.8,1.2l2.1,3.9c2,3.6,5.7,5.9,9.8,5.9c0.6,0,1.2-0.1,1.8-0.2l4.2-0.7c0.6-0.1,1.3-0.2,1.9-0.2
	c6,0,10.9,4.7,11.1,10.6l0.2,4.4c0.2,4.8,3.5,8.9,8.1,10.2l4.2,1.2c5.9,1.7,9.4,7.8,7.7,13.8c-0.1,0.5-0.3,0.9-0.5,1.3l-1.7,4
	c-1.9,4.4-0.7,9.6,2.9,12.7l3.3,2.9c4.6,4.1,5.1,11.2,1,15.8c-0.3,0.3-0.6,0.7-1,1l-3.3,2.9c-3.6,3.2-4.8,8.3-2.9,12.7l1.7,4.1
	c2.4,5.7-0.3,12.2-6,14.6c-0.4,0.2-0.8,0.3-1.3,0.4l-4.2,1.2c-4.6,1.2-7.9,5.2-8.3,10l-0.2,4.4c-0.3,5.9-5.2,10.6-11.1,10.6
	c-0.7,0-1.3-0.1-2-0.2l-4.3-0.7c-4.7-0.8-9.5,1.4-11.8,5.6l-2.1,3.8c-3,5.4-9.7,7.4-15.1,4.4c-0.4-0.2-0.8-0.5-1.2-0.8l-3.6-2.6
	c-3.9-2.8-9.1-2.8-13,0l-3.6,2.5c-5,3.6-12,2.5-15.6-2.5c-0.3-0.4-0.6-0.8-0.8-1.3l-2.1-3.9c-2.3-4.2-7-6.5-11.7-5.7l-4.1,0.7
	c-0.6,0.1-1.3,0.2-1.9,0.2c-6,0-10.9-4.7-11.1-10.6l-0.2-4.4c-0.2-4.8-3.5-8.9-8.1-10.2l-4.2-1.2c-5.9-1.7-9.4-7.8-7.7-13.8
	c0.1-0.5,0.3-0.9,0.5-1.3l1.7-4c1.9-4.4,0.7-9.6-2.9-12.7l-3.3-2.9c-4.6-4.2-4.9-11.2-0.7-15.8C935.5,106.6,935.8,106.3,936.1,106z"
	/>
<g>
	<path d="M996.3,114.2c-10.4,0-16.3-8.5-16.3-17.7s6-17.7,16.5-17.7c10.6,0,16.3,8.5,16.3,17.7S1006.9,114.2,996.3,114.2z
		 M993.4,149.6l-6.7-5.6l53.8-65.7l6.7,5.6L993.4,149.6z M996.4,87.6c-3.2,0-5.1,3.3-5.1,9s1.8,9,5.1,9s5.2-3.3,5.2-9
		S999.8,87.6,996.4,87.6z M1037.5,148.9c-10.6,0-16.3-8.5-16.3-17.7c0-9.1,6-17.7,16.5-17.7c10.6,0,16.3,8.6,16.3,17.7
		C1054,140.4,1048.1,148.9,1037.5,148.9z M1037.6,122.3c-3.3,0-5.2,3.3-5.2,9c0,5.6,1.8,9.1,5.2,9.1c3.2,0,5.1-3.4,5.1-9.1
		C1042.7,125.6,1040.8,122.3,1037.6,122.3z"/>
</g>
<path class="st5" d="M1510.1,191.4h-26.9v-9.2l21.2-21.2c5.2,4.5,11.7,6.8,18.3,6.8c7.5,0,15.1-2.9,21-8.8
	c15.3-15.3,14.5-51.1,14.5-52.6c0-1-0.9-1.9-1.9-1.9c-1.5,0-37.8-0.3-52.6,14.5c-5.5,5.5-8.6,12.8-8.8,20.4
	c-0.1,7,2.3,13.6,6.8,18.8l-18.5,18.5v-59.3c14.7-1,26.4-13.7,26.4-29.2c0-21.7-25.8-46.4-26.9-47.4c-0.8-0.7-1.9-0.7-2.7,0
	c-1.1,1.1-26.9,26.6-27,47.4c0,7.8,2.9,15.1,8.3,20.7c4.9,5.1,11.2,8,18.1,8.5v59.3l-18.5-18.5c4.5-5.2,6.9-11.8,6.8-18.8
	c-0.1-7.7-3.3-14.9-8.8-20.4c-14.7-14.7-51-14.5-52.6-14.5c-1,0-1.9,0.8-1.9,1.9c0,1.5-0.9,37.2,14.5,52.6c5.8,5.8,13.4,8.8,21,8.8
	c6.6,0,13.1-2.3,18.3-6.8l21.3,21.2v9.2h-27c-1.1,0-1.9,0.9-1.9,1.9c0,1.1,0.9,1.9,1.9,1.9h57.8c1.1,0,1.9-0.9,1.9-1.9
	C1512,192.3,1511.1,191.4,1510.1,191.4z M1507.1,158.3l5.7-5.7l30.6,0.8c-0.8,1.1-1.6,2-2.5,2.9
	C1531.5,165.7,1516.7,166.4,1507.1,158.3z M1552,131.7l-17.8-0.5l20.1-20.1C1554.1,115.9,1553.6,123.7,1552,131.7z M1545.9,149.5
	l-29.3-0.8l13.7-13.7l20.7,0.5C1549.9,140.5,1548.2,145.3,1545.9,149.5z M1531.4,128.5l-0.5-17.6c8-1.6,15.7-2.2,20.5-2.4
	L1531.4,128.5z M1527.6,132.3l-13.7,13.7l-0.7-29.1c4.2-2.2,9-3.9,13.9-5.1L1527.6,132.3z M1498.7,139.5c0.1-6.7,2.8-13,7.6-17.8
	c0.9-0.9,1.9-1.7,3-2.5l0.8,30.5l-5.7,5.7C1500.6,151.1,1498.6,145.5,1498.7,139.5z M1464.4,66.6l14.9,14.1v19.4L1458.2,80
	C1459.5,75.5,1461.8,70.9,1464.4,66.6z M1504.4,80l-21.2,20.2V80.8l15-14.3C1500.8,70.8,1503.1,75.4,1504.4,80z M1479.3,75.4
	l-12.8-12.1c4.5-6.8,9.6-12.7,12.8-16.2V75.4z M1483.2,113.5v-8.1l22.2-21.1c0.2,1.3,0.3,2.6,0.3,3.9
	C1505.7,101.6,1495.7,112.5,1483.2,113.5z M1496.1,63.1l-12.9,12.3V47C1486.4,50.4,1491.6,56.3,1496.1,63.1z M1464,106.2
	c-4.6-4.8-7.2-11.2-7.2-18c0-1.3,0.1-2.5,0.3-3.8l22.1,21v8.1C1473.5,113.1,1468.1,110.5,1464,106.2z M1463.6,139.5
	c0.1,6-1.9,11.6-5.6,16l-5.7-5.7l0.8-30.5c1.1,0.8,2.1,1.6,3,2.5C1460.8,126.6,1463.5,132.9,1463.6,139.5z M1411.3,135.6l20.7-0.5
	l13.7,13.7l-29.3,0.8C1414.2,145.3,1412.5,140.5,1411.3,135.6z M1411,108.5c4.8,0.2,12.5,0.8,20.5,2.4l-0.5,17.6L1411,108.5z
	 M1408.2,111.2l20.1,20.1l-17.8,0.5C1408.8,123.7,1408.3,115.9,1408.2,111.2z M1434.8,132.3l0.5-20.5c4.9,1.2,9.8,2.9,13.9,5.1
	l-0.8,29.1L1434.8,132.3z M1421.5,156.3c-0.9-0.9-1.7-1.9-2.5-2.9l30.6-0.8l5.7,5.7C1445.6,166.4,1430.9,165.7,1421.5,156.3z"/>
<path class="st3" d="M1860.4,106l3.3-2.9c3.6-3.2,4.8-8.3,2.9-12.7l-1.7-4.1c-2.4-5.7,0.3-12.2,6-14.6c0.4-0.2,0.8-0.3,1.3-0.4
	l4.2-1.2c4.6-1.3,7.8-5.3,8.1-10.1l0.2-4.4c0.3-5.9,5.2-10.6,11.1-10.6c0.7,0,1.3,0.1,2,0.2l4.3,0.8c4.7,0.8,9.5-1.4,11.8-5.6
	l2.1-3.9c3-5.4,9.7-7.4,15.1-4.4c0.4,0.2,0.8,0.5,1.2,0.8l3.6,2.6c3.9,2.8,9.1,2.8,13,0l3.6-2.5c5-3.6,12-2.5,15.6,2.5
	c0.3,0.4,0.5,0.8,0.8,1.2l2.1,3.9c2,3.6,5.7,5.9,9.8,5.9c0.6,0,1.2-0.1,1.8-0.2l4.2-0.7c0.6-0.1,1.3-0.2,1.9-0.2
	c6,0,10.9,4.7,11.1,10.6l0.2,4.4c0.2,4.8,3.5,8.9,8.1,10.2l4.2,1.2c5.9,1.7,9.4,7.8,7.7,13.8c-0.1,0.5-0.3,0.9-0.5,1.3l-1.7,4
	c-1.9,4.4-0.7,9.6,2.9,12.7l3.3,2.9c4.6,4.1,5.1,11.2,1,15.8c-0.3,0.3-0.6,0.7-1,1l-3.3,2.9c-3.6,3.2-4.8,8.3-2.9,12.7l1.7,4.1
	c2.4,5.7-0.3,12.2-6,14.6c-0.4,0.2-0.8,0.3-1.3,0.4l-4.2,1.2c-4.6,1.2-7.9,5.2-8.3,10l-0.2,4.4c-0.3,5.9-5.2,10.6-11.1,10.6
	c-0.7,0-1.3-0.1-2-0.2l-4.3-0.7c-4.7-0.8-9.5,1.4-11.8,5.6l-2.1,3.8c-3,5.4-9.7,7.4-15.1,4.4c-0.4-0.2-0.8-0.5-1.2-0.8l-3.6-2.6
	c-3.9-2.8-9.1-2.8-13,0l-3.6,2.5c-5,3.6-12,2.5-15.6-2.5c-0.3-0.4-0.6-0.8-0.8-1.3l-2.1-3.9c-2.3-4.2-7-6.5-11.7-5.7l-4.1,0.7
	c-0.6,0.1-1.3,0.2-1.9,0.2c-6,0-10.9-4.7-11.1-10.6l-0.2-4.4c-0.2-4.8-3.5-8.9-8.1-10.2l-4.2-1.2c-5.9-1.7-9.4-7.8-7.7-13.8
	c0.1-0.5,0.3-0.9,0.5-1.3l1.7-4c1.9-4.4,0.7-9.6-2.9-12.7l-3.3-2.9c-4.6-4.2-4.9-11.2-0.7-15.8C1859.7,106.6,1860,106.3,1860.4,106z
	"/>
<g>
	<path d="M1918.3,130.5l-18.9-17v16.4h-7.3V98.2l1-0.2l18.7,16.9V98.6h7.3v31.8L1918.3,130.5z"/>
	<path d="M1925.9,129.9V98.6h19.9v6.7h-12.6v5.6h11.5v6.3h-11.5v6.1h12.6v6.6H1925.9z"/>
	<path d="M1981.2,130.5l-1,0.1l-9.6-18.8l-9.5,18.8l-0.9-0.1l-11.4-31.9h8.3l5,16.5l8.2-16.7h0.8l8.2,16.6l5-16.3h8.2L1981.2,130.5z
		"/>
</g>
<path d="M2519.9,79.8l-5.3,5.3c25.4,33.9,18.6,81.9-15.3,107.3c-11.8,8.9-26,14.2-40.8,15.2c-1.7,0.1-3.5,0.2-5.2,0.2
	c-21.7,0-42.4-9.1-56.9-25.3c-1.7-2-1.5-5,0.5-6.7c1.9-1.7,4.8-1.5,6.6,0.3c24.9,27.5,67.3,29.7,94.9,4.8
	c26.9-24.3,29.7-65.5,6.3-93.2c-1.6-1.9-1.5-4.7,0.3-6.4l8.3-8.3c1.2-1.4,1.1-3.5-0.2-4.8c-1.3-1.2-3.2-1.2-4.5,0l-8.6,8.6
	c-1.7,1.7-4.3,1.9-6.2,0.4c-9.5-7.2-20.8-11.6-32.7-13c-2.4-0.3-4.2-2.3-4.2-4.7V44.3c0-2.6,2.1-4.8,4.7-4.8h0.1h4.4
	c1.9,0,3.4-1.5,3.4-3.4s-1.5-3.4-3.4-3.4h-25c-1.9,0-3.4,1.5-3.4,3.4s1.5,3.4,3.4,3.4h4.4c2.6,0,4.8,2.1,4.8,4.8v15.4
	c0,2.4-1.8,4.4-4.2,4.7c-15.4,1.8-29.7,8.8-40.5,19.8c-1.8,1.9-4.9,1.9-6.7,0.1c-1.9-1.8-1.9-4.9-0.1-6.7c11.3-11.6,26-19.3,42-22
	V49c-7.1-0.6-12.3-6.9-11.7-14c0.6-6.3,5.7-11.3,12.1-11.7h25c7.1,0.4,12.5,6.5,12.1,13.6c-0.4,6.4-5.3,11.5-11.7,12.1v6.4
	c10.6,1.8,20.8,5.8,29.7,11.8l5.7-5.7c5-5,13.2-5,18.2,0C2524.9,66.5,2524.9,74.7,2519.9,79.8L2519.9,79.8L2519.9,79.8z M2364,106.7
	c0,2.6,2.1,4.8,4.8,4.8h33c2.6,0,4.8-2.1,4.8-4.8s-2.1-4.8-4.8-4.8h-33C2366.1,102,2364,104.1,2364,106.7L2364,106.7z M2418,129.8
	c0-2.6-2.1-4.8-4.8-4.8h-33c-2.6,0-4.8,2.1-4.8,4.8c0,2.7,2.1,4.8,4.8,4.8h33C2415.9,134.5,2418,132.4,2418,129.8z M2368.7,157.6h33
	c2.6,0,4.8-2.1,4.8-4.8c0-2.6-2.1-4.8-4.8-4.8h-33c-2.6,0-4.8,2.1-4.8,4.8C2364,155.5,2366.1,157.6,2368.7,157.6z M2479.7,111.4
	l-12.2,12.2c4.1,7.9,1.1,17.6-6.7,21.7c-7.9,4.1-17.6,1.1-21.7-6.7c-4.1-7.9-1.1-17.6,6.7-21.7c4.7-2.5,10.3-2.5,15,0l12.2-12.2
	c1.9-1.9,4.9-1.9,6.7,0C2481.6,106.5,2481.6,109.6,2479.7,111.4z M2459.8,131.1c0-3.6-2.9-6.5-6.5-6.5s-6.5,2.9-6.5,6.5
	c0,3.6,2.9,6.5,6.5,6.5C2456.9,137.6,2459.8,134.7,2459.8,131.1z M2453.3,187.7c31.3,0,56.6-25.3,56.7-56.5s-25.3-56.6-56.5-56.7
	c-15,0-29.5,5.9-40.1,16.6c-1.9,1.9-1.9,4.9,0,6.7c1.9,1.9,4.9,1.9,6.7,0c18.4-18.4,48.2-18.4,66.6-0.1s18.4,48.2,0.1,66.6
	c-18.4,18.4-48.2,18.4-66.6,0.1c0,0,0,0-0.1-0.1c-1.9-1.9-4.9-1.9-6.7,0s-1.9,4.9,0,6.7C2424,181.7,2438.3,187.7,2453.3,187.7z"/>
<g>
	<path d="M2916.4,129.9V98.8h19.7v6.6h-12.5v5.6h11.4v6.3h-11.4v6.1h12.5v6.6h-19.7V129.9z"/>
	<path d="M2968.3,130.5l-18.7-16.8v16.2h-7.2V98.4l1-0.2l18.5,16.7V98.8h7.2v31.5L2968.3,130.5z"/>
	<path d="M2985.4,130.2c-3.6,0-5.7-0.2-9.5-0.5V99.1c3.6-0.4,6.1-0.5,9.2-0.5c12.9,0,18.9,6.7,18.9,15.5
		C3004,123.3,2998.2,130.2,2985.4,130.2z M2986,105.1c-1.2,0-1.9,0-3,0.2v18.3c1.3,0.1,1.9,0.2,3.4,0.2c6.8,0,9.8-3.8,9.8-9.6
		C2996.3,108.5,2992.7,105.1,2986,105.1z"/>
</g>
</svg>
