<?xml version="1.0" encoding="utf-8"?>
<!-- Generator: Adobe Illustrator 23.0.3, SVG Export Plug-In . SVG Version: 6.00 Build 0)  -->
<svg version="1.1" id="Calque_1" xmlns="http://www.w3.org/2000/svg" xmlns:xlink="http://www.w3.org/1999/xlink" x="0px" y="0px"
	 viewBox="0 0 198.4 226.8" style="enable-background:new 0 0 198.4 226.8;" xml:space="preserve">
<style type="text/css">
	.st0{fill:none;stroke:#000000;stroke-width:19.896;stroke-linecap:round;stroke-miterlimit:10;}
	.st1{fill:none;stroke:#000000;stroke-width:14.7614;stroke-linecap:round;stroke-miterlimit:10;}
	.st2{fill:none;stroke:#000000;stroke-width:14.879;stroke-linecap:round;stroke-linejoin:round;stroke-miterlimit:10;}
	.st3{fill:none;stroke:#000000;stroke-width:14.8785;stroke-linecap:round;stroke-miterlimit:10;}
	.st4{stroke:#000000;stroke-width:4;stroke-miterlimit:10;}
</style>
<title>winecheese</title>
<g>
	<path d="M-1219.3,84.9c-1.4-16.4-10.9-64.9-11-65.3c-0.3-1.6-1.8-2.8-3.4-2.8h-93.6c-1.6,0-3.1,1.2-3.4,2.8l0,0.2v0.1
		c-0.1,0.5-0.4,2.3-0.9,4.6c-2.5,12.9-9,47.1-10.1,60.5c-1.2,15.1,4.1,30.1,14.6,41.1c11.2,12.1,26.8,19.4,43.2,20.3v52.1h-33.4
		c-1.9,0-3.5,1.6-3.5,3.5c0,1.9,1.6,3.5,3.5,3.5h73.7c1.9,0,3.5-1.6,3.5-3.5c0-1.9-1.6-3.5-3.5-3.5h-33.4v-52.1
		c16.4-0.9,32.1-8.2,43.2-20.3C-1223.4,115-1218.1,100-1219.3,84.9z M-1238.3,120.6L-1238.3,120.6l-0.7,0.7
		c-10.7,11.6-25.9,18.2-41.6,18.2c-14.3,0-28-5.4-38.5-15.1c-1.1-1-2.1-2-3.1-3.1c-9.1-9.6-13.7-22.7-12.7-35.8
		c1.2-14.1,8.7-52.9,10.4-61.8h88c3,15.6,9.3,49,10.4,61.7C-1225.1,98.3-1229.6,111.1-1238.3,120.6z"/>
	<path d="M-1240.7,67.6c0.3,1.6,1.7,2.8,3.3,2.8c0.2,0,0.4,0,0.6,0c1.8-0.3,3-2,2.7-3.9l-5.2-30c-0.3-1.8-2-3-3.9-2.7
		c-1.8,0.3-3,2-2.7,3.9L-1240.7,67.6z"/>
</g>
<path class="st0" d="M-1337,84.4c0,0,39.8-16.8,55.8-2.1c16,14.7,52.8,6.2,57.5-1.5"/>
<path class="st1" d="M-836.3,76.4c0,0,20.7-13.6,30.5,1.8c9.8,15.3,29.5,9.6,31.5,2.5"/>
<path class="st2" d="M-779.3,24.2h-25.5h-1.4h-25.5c0,0-22.6,116.1,25.9,120.6l0,0c0.1,0,0.2,0,0.2,0c0.1,0,0.2,0,0.2,0l0,0
	C-756.7,140.3-779.3,24.2-779.3,24.2z"/>
<line class="st2" x1="-805.3" y1="144.8" x2="-805.3" y2="203"/>
<line class="st2" x1="-831.3" y1="203" x2="-778.8" y2="203"/>
<path class="st3" d="M-786.6,38.8c0,0,2.4,16.7,2.8,25.8"/>
<circle cx="-819.2" cy="95.9" r="2.2"/>
<circle cx="-808.5" cy="108.7" r="2.2"/>
<circle cx="-793.7" cy="116" r="2.2"/>
<circle cx="-800.9" cy="95.5" r="2.2"/>
<circle cx="-817.9" cy="83.1" r="2.2"/>
<circle cx="-824.5" cy="107.3" r="2.2"/>
<circle cx="-841" cy="89.4" r="2.2"/>
<circle cx="-811.8" cy="126.9" r="2.2"/>
<circle cx="-825.7" cy="122.5" r="2.2"/>
<circle cx="-784.7" cy="102.5" r="2.2"/>
<circle cx="-787.4" cy="118" r="2.2"/>
<circle cx="-793.6" cy="106.9" r="2.2"/>
<circle cx="-802.4" cy="128.1" r="2.2"/>
<circle cx="-795.4" cy="135.8" r="2.2"/>
<circle cx="-811.8" cy="140" r="2.2"/>
<circle cx="-790.8" cy="91.7" r="2.2"/>
<path class="st2" d="M1502.8,102.1l3.3-2.9c3.6-3.2,4.8-8.3,2.9-12.7l-1.7-4.1c-2.4-5.7,0.3-12.2,6-14.6c0.4-0.2,0.8-0.3,1.3-0.4
	l4.2-1.2c4.6-1.3,7.8-5.3,8.1-10.1l0.2-4.4c0.3-5.9,5.2-10.6,11.1-10.6c0.7,0,1.3,0.1,2,0.2l4.3,0.8c4.7,0.8,9.5-1.4,11.8-5.6
	l2.1-3.9c3-5.4,9.7-7.4,15.1-4.4c0.4,0.2,0.8,0.5,1.2,0.8l3.6,2.6c3.9,2.8,9.1,2.8,13,0l3.6-2.5c5-3.6,12-2.5,15.6,2.5
	c0.3,0.4,0.5,0.8,0.8,1.2l2.1,3.9c2,3.6,5.7,5.9,9.8,5.9c0.6,0,1.2-0.1,1.8-0.2l4.2-0.7c0.6-0.1,1.3-0.2,1.9-0.2
	c6,0,10.9,4.7,11.1,10.6l0.2,4.4c0.2,4.8,3.5,8.9,8.1,10.2l4.2,1.2c5.9,1.7,9.4,7.8,7.7,13.8c-0.1,0.5-0.3,0.9-0.5,1.3l-1.7,4
	c-1.9,4.4-0.7,9.6,2.9,12.7l3.3,2.9c4.6,4.1,5.1,11.2,1,15.8c-0.3,0.3-0.6,0.7-1,1l-3.3,2.9c-3.6,3.2-4.8,8.3-2.9,12.7l1.7,4.1
	c2.4,5.7-0.3,12.2-6,14.6c-0.4,0.2-0.8,0.3-1.3,0.4l-4.2,1.2c-4.6,1.2-7.9,5.2-8.3,10l-0.2,4.4c-0.3,5.9-5.2,10.6-11.1,10.6
	c-0.7,0-1.3-0.1-2-0.2l-4.3-0.7c-4.7-0.8-9.5,1.4-11.8,5.6l-2.1,3.8c-3,5.4-9.7,7.4-15.1,4.4c-0.4-0.2-0.8-0.5-1.2-0.8l-3.6-2.6
	c-3.9-2.8-9.1-2.8-13,0l-3.6,2.5c-5,3.6-12,2.5-15.6-2.5c-0.3-0.4-0.6-0.8-0.8-1.3l-2.1-3.9c-2.3-4.2-7-6.5-11.7-5.7l-4.1,0.7
	c-0.6,0.1-1.3,0.2-1.9,0.2c-6,0-10.9-4.7-11.1-10.6l-0.2-4.4c-0.2-4.8-3.5-8.9-8.1-10.2l-4.2-1.2c-5.9-1.7-9.4-7.8-7.7-13.8
	c0.1-0.5,0.3-0.9,0.5-1.3l1.7-4c1.9-4.4,0.7-9.6-2.9-12.7l-3.3-2.9c-4.6-4.2-4.9-11.2-0.7-15.8
	C1502.2,102.7,1502.5,102.4,1502.8,102.1z"/>
<path class="st2" d="M-439.3,102.1l3.3-2.9c3.6-3.2,4.8-8.3,2.9-12.7l-1.7-4.1c-2.4-5.7,0.3-12.2,6-14.6c0.4-0.2,0.8-0.3,1.3-0.4
	l4.2-1.2c4.6-1.3,7.8-5.3,8.1-10.1l0.2-4.4c0.3-5.9,5.2-10.6,11.1-10.6c0.7,0,1.3,0.1,2,0.2l4.3,0.8c4.7,0.8,9.5-1.4,11.8-5.6
	l2.1-3.9c3-5.4,9.7-7.4,15.1-4.4c0.4,0.2,0.8,0.5,1.2,0.8l3.6,2.6c3.9,2.8,9.1,2.8,13,0l3.6-2.5c5-3.6,12-2.5,15.6,2.5
	c0.3,0.4,0.5,0.8,0.8,1.2l2.1,3.9c2,3.6,5.7,5.9,9.8,5.9c0.6,0,1.2-0.1,1.8-0.2l4.2-0.7c0.6-0.1,1.3-0.2,1.9-0.2
	c6,0,10.9,4.7,11.1,10.6l0.2,4.4c0.2,4.8,3.5,8.9,8.1,10.2l4.2,1.2c5.9,1.7,9.4,7.8,7.7,13.8c-0.1,0.5-0.3,0.9-0.5,1.3l-1.7,4
	c-1.9,4.4-0.7,9.6,2.9,12.7l3.3,2.9c4.6,4.1,5.1,11.2,1,15.8c-0.3,0.3-0.6,0.7-1,1l-3.3,2.9c-3.6,3.2-4.8,8.3-2.9,12.7l1.7,4.1
	c2.4,5.7-0.3,12.2-6,14.6c-0.4,0.2-0.8,0.3-1.3,0.4l-4.2,1.2c-4.6,1.2-7.9,5.2-8.3,10l-0.2,4.4c-0.3,5.9-5.2,10.6-11.1,10.6
	c-0.7,0-1.3-0.1-2-0.2l-4.3-0.7c-4.7-0.8-9.5,1.4-11.8,5.6l-2.1,3.8c-3,5.4-9.7,7.4-15.1,4.4c-0.4-0.2-0.8-0.5-1.2-0.8l-3.6-2.6
	c-3.9-2.8-9.1-2.8-13,0l-3.6,2.5c-5,3.6-12,2.5-15.6-2.5c-0.3-0.4-0.6-0.8-0.8-1.3l-2.1-3.9c-2.3-4.2-7-6.5-11.7-5.7l-4.1,0.7
	c-0.6,0.1-1.3,0.2-1.9,0.2c-6,0-10.9-4.7-11.1-10.6l-0.2-4.4c-0.2-4.8-3.5-8.9-8.1-10.2l-4.2-1.2c-5.9-1.7-9.4-7.8-7.7-13.8
	c0.1-0.5,0.3-0.9,0.5-1.3l1.7-4c1.9-4.4,0.7-9.6-2.9-12.7l-3.3-2.9c-4.6-4.2-4.9-11.2-0.7-15.8
	C-439.9,102.7-439.6,102.4-439.3,102.1z"/>
<g>
	<path d="M-379.1,110.3c-10.4,0-16.3-8.5-16.3-17.7s6-17.7,16.5-17.7s16.3,8.5,16.3,17.7S-368.5,110.3-379.1,110.3z M-381.9,145.7
		l-6.7-5.6l53.8-65.7l6.7,5.6L-381.9,145.7z M-379,83.7c-3.2,0-5.1,3.3-5.1,9s1.8,9,5.1,9c3.3,0,5.2-3.3,5.2-9S-375.6,83.7-379,83.7
		z M-337.9,145c-10.6,0-16.3-8.5-16.3-17.7c0-9.1,6-17.7,16.5-17.7c10.6,0,16.3,8.6,16.3,17.7C-321.3,136.5-327.3,145-337.9,145z
		 M-337.8,118.4c-3.3,0-5.2,3.3-5.2,9s1.8,9.1,5.2,9.1c3.2,0,5.1-3.4,5.1-9.1S-334.5,118.4-337.8,118.4z"/>
</g>
<path class="st4" d="M134.7,187.5h-26.9l0-9.2l21.2-21.2c5.2,4.5,11.7,6.8,18.3,6.8c7.5,0,15.1-2.9,21-8.8
	c15.3-15.3,14.5-51.1,14.5-52.6c0-1-0.9-1.9-1.9-1.9c-1.5,0-37.8-0.3-52.6,14.5c-5.5,5.5-8.6,12.8-8.8,20.4
	c-0.1,7,2.3,13.6,6.8,18.8l-18.5,18.5l0-59.3c14.7-1,26.4-13.7,26.4-29.2c0-21.7-25.8-46.4-26.9-47.4c-0.8-0.7-1.9-0.7-2.7,0
	c-1.1,1.1-26.9,26.6-27,47.4c0,7.8,2.9,15.1,8.3,20.7c4.9,5.1,11.2,8,18.1,8.5l0,59.3l-18.5-18.5c4.5-5.2,6.9-11.8,6.8-18.8
	c-0.1-7.7-3.3-14.9-8.8-20.4c-14.7-14.7-51-14.5-52.6-14.5c-1,0-1.9,0.8-1.9,1.9c0,1.5-0.9,37.2,14.5,52.6c5.8,5.8,13.4,8.8,21,8.8
	c6.6,0,13.1-2.3,18.3-6.8l21.3,21.2l0,9.2h-27c-1.1,0-1.9,0.9-1.9,1.9s0.9,1.9,1.9,1.9h57.8c1.1,0,1.9-0.9,1.9-1.9
	S135.8,187.5,134.7,187.5z M131.7,154.3l5.7-5.7l30.6,0.8c-0.8,1.1-1.6,2-2.5,2.9C156.1,161.8,141.4,162.5,131.7,154.3z
	 M176.6,127.8l-17.8-0.5l20.1-20.1C178.7,112,178.2,119.8,176.6,127.8z M170.5,145.6l-29.3-0.8l13.7-13.7l20.7,0.5
	C174.5,136.6,172.8,141.4,170.5,145.6z M156,124.6l-0.5-17.6c8-1.6,15.7-2.2,20.5-2.4L156,124.6z M152.2,128.4l-13.7,13.7l-0.7-29.1
	c4.2-2.2,9-3.9,13.9-5.1L152.2,128.4z M123.4,135.6c0.1-6.7,2.8-13,7.6-17.8c0.9-0.9,1.9-1.7,3-2.5l0.8,30.5l-5.7,5.7
	C125.3,147.2,123.2,141.6,123.4,135.6z M89,62.7l14.9,14.1l0,19.4L82.8,76.1C84.1,71.6,86.4,67,89,62.7z M129,76.1l-21.2,20.2
	l0-19.4l15-14.3C125.4,66.9,127.7,71.5,129,76.1z M103.9,71.5L91.2,59.3c4.5-6.8,9.6-12.7,12.8-16.2L103.9,71.5z M107.8,109.6l0-8.1
	L130,80.5c0.2,1.3,0.3,2.6,0.3,3.9C130.3,97.7,120.3,108.6,107.8,109.6z M120.7,59.2l-12.9,12.3l0-28.4
	C111,46.5,116.2,52.4,120.7,59.2z M88.6,102.3c-4.6-4.8-7.2-11.2-7.2-18c0-1.3,0.1-2.5,0.3-3.8l22.1,21l0,8.1
	C98.1,109.2,92.8,106.6,88.6,102.3z M88.3,135.6c0.1,6-1.9,11.6-5.6,16l-5.7-5.7l0.8-30.5c1.1,0.8,2.1,1.6,3,2.5
	C85.4,122.7,88.1,129,88.3,135.6z M35.9,131.7l20.7-0.5l13.7,13.7l-29.3,0.8C38.8,141.4,37.1,136.6,35.9,131.7z M35.6,104.6
	c4.8,0.2,12.5,0.8,20.5,2.4l-0.5,17.6L35.6,104.6z M32.8,107.3l20.1,20.1l-17.8,0.5C33.4,119.8,32.9,112,32.8,107.3z M59.4,128.4
	l0.5-20.5c4.9,1.2,9.8,2.9,13.9,5.1l-0.8,29.1L59.4,128.4z M46.1,152.4c-0.9-0.9-1.7-1.9-2.5-2.9l30.6-0.8l5.7,5.7
	C70.3,162.5,55.5,161.8,46.1,152.4z"/>
<path class="st2" d="M485,102.1l3.3-2.9c3.6-3.2,4.8-8.3,2.9-12.7l-1.7-4.1c-2.4-5.7,0.3-12.2,6-14.6c0.4-0.2,0.8-0.3,1.3-0.4
	l4.2-1.2c4.6-1.3,7.8-5.3,8.1-10.1l0.2-4.4c0.3-5.9,5.2-10.6,11.1-10.6c0.7,0,1.3,0.1,2,0.2l4.3,0.8c4.7,0.8,9.5-1.4,11.8-5.6
	l2.1-3.9c3-5.4,9.7-7.4,15.1-4.4c0.4,0.2,0.8,0.5,1.2,0.8l3.6,2.6c3.9,2.8,9.1,2.8,13,0l3.6-2.5c5-3.6,12-2.5,15.6,2.5
	c0.3,0.4,0.5,0.8,0.8,1.2l2.1,3.9c2,3.6,5.7,5.9,9.8,5.9c0.6,0,1.2-0.1,1.8-0.2l4.2-0.7c0.6-0.1,1.3-0.2,1.9-0.2
	c6,0,10.9,4.7,11.1,10.6l0.2,4.4c0.2,4.8,3.5,8.9,8.1,10.2l4.2,1.2c5.9,1.7,9.4,7.8,7.7,13.8c-0.1,0.5-0.3,0.9-0.5,1.3l-1.7,4
	c-1.9,4.4-0.7,9.6,2.9,12.7l3.3,2.9c4.6,4.1,5.1,11.2,1,15.8c-0.3,0.3-0.6,0.7-1,1l-3.3,2.9c-3.6,3.2-4.8,8.3-2.9,12.7l1.7,4.1
	c2.4,5.7-0.3,12.2-6,14.6c-0.4,0.2-0.8,0.3-1.3,0.4l-4.2,1.2c-4.6,1.2-7.9,5.2-8.3,10l-0.2,4.4c-0.3,5.9-5.2,10.6-11.1,10.6
	c-0.7,0-1.3-0.1-2-0.2l-4.3-0.7c-4.7-0.8-9.5,1.4-11.8,5.6l-2.1,3.8c-3,5.4-9.7,7.4-15.1,4.4c-0.4-0.2-0.8-0.5-1.2-0.8l-3.6-2.6
	c-3.9-2.8-9.1-2.8-13,0l-3.6,2.5c-5,3.6-12,2.5-15.6-2.5c-0.3-0.4-0.6-0.8-0.8-1.3l-2.1-3.9c-2.3-4.2-7-6.5-11.7-5.7l-4.1,0.7
	c-0.6,0.1-1.3,0.2-1.9,0.2c-6,0-10.9-4.7-11.1-10.6l-0.2-4.4c-0.2-4.8-3.5-8.9-8.1-10.2l-4.2-1.2c-5.9-1.7-9.4-7.8-7.7-13.8
	c0.1-0.5,0.3-0.9,0.5-1.3l1.7-4c1.9-4.4,0.7-9.6-2.9-12.7l-3.3-2.9c-4.6-4.2-4.9-11.2-0.7-15.8C484.3,102.7,484.6,102.4,485,102.1z"
	/>
<g>
	<path d="M542.9,126.6l-18.9-17V126h-7.3V94.2l1-0.2l18.7,16.9V94.7h7.3v31.8L542.9,126.6z"/>
	<path d="M550.5,126V94.7h19.9v6.7h-12.6v5.6h11.5v6.3h-11.5v6.1h12.6v6.6H550.5z"/>
	<path d="M605.9,126.5l-1,0.1l-9.6-18.8l-9.5,18.8l-0.9-0.1l-11.4-31.9h8.3l5,16.5l8.2-16.7h0.8l8.2,16.6l5-16.3h8.2L605.9,126.5z"
		/>
</g>
<path d="M1144.5,75.8l-5.3,5.3c25.4,33.9,18.6,81.9-15.3,107.3c-11.8,8.9-26,14.2-40.8,15.2c-1.7,0.1-3.5,0.2-5.2,0.2
	c-21.7,0-42.4-9.1-56.9-25.3c-1.7-2-1.5-5,0.5-6.7c1.9-1.7,4.8-1.5,6.6,0.3c24.9,27.5,67.3,29.7,94.9,4.8
	c26.9-24.3,29.7-65.5,6.3-93.2c-1.6-1.9-1.5-4.7,0.3-6.4l8.3-8.3c1.2-1.4,1.1-3.5-0.2-4.8c-1.3-1.2-3.2-1.2-4.5,0l-8.6,8.6
	c-1.7,1.7-4.3,1.9-6.2,0.4c-9.5-7.2-20.8-11.6-32.7-13c-2.4-0.3-4.2-2.3-4.2-4.7V40.4c0-2.6,2.1-4.8,4.7-4.8c0,0,0.1,0,0.1,0h4.4
	c1.9,0,3.4-1.5,3.4-3.4c0-1.9-1.5-3.4-3.4-3.4h-25c-1.9,0-3.4,1.5-3.4,3.4c0,1.9,1.5,3.4,3.4,3.4h4.4c2.6,0,4.8,2.1,4.8,4.8v15.4
	c0,2.4-1.8,4.4-4.2,4.7c-15.4,1.8-29.7,8.8-40.5,19.8c-1.8,1.9-4.9,1.9-6.7,0.1c-1.9-1.8-1.9-4.9-0.1-6.7c11.3-11.6,26-19.3,42-22
	v-6.5c-7.1-0.6-12.3-6.9-11.7-14c0.6-6.3,5.7-11.3,12.1-11.7h25c7.1,0.4,12.5,6.5,12.1,13.6c-0.4,6.4-5.3,11.5-11.7,12.1v6.4
	c10.6,1.8,20.8,5.8,29.7,11.8l5.7-5.7c5-5,13.2-5,18.2,0C1149.5,62.6,1149.5,70.8,1144.5,75.8L1144.5,75.8L1144.5,75.8z
	 M988.6,102.8c0,2.6,2.1,4.8,4.8,4.8h33c2.6,0,4.8-2.1,4.8-4.8s-2.1-4.8-4.8-4.8h-33C990.7,98.1,988.6,100.2,988.6,102.8
	L988.6,102.8z M1042.6,125.9c0-2.6-2.1-4.8-4.8-4.8h-33c-2.6,0-4.8,2.1-4.8,4.8c0,2.6,2.1,4.8,4.8,4.8h33
	C1040.5,130.6,1042.6,128.5,1042.6,125.9z M993.3,153.7h33c2.6,0,4.8-2.1,4.8-4.8s-2.1-4.8-4.8-4.8h-33c-2.6,0-4.8,2.1-4.8,4.8
	S990.7,153.7,993.3,153.7z M1104.3,107.5l-12.2,12.2c4.1,7.9,1.1,17.6-6.7,21.7c-7.9,4.1-17.6,1.1-21.7-6.7
	c-4.1-7.9-1.1-17.6,6.7-21.7c4.7-2.5,10.3-2.5,15,0l12.2-12.2c1.9-1.9,4.9-1.9,6.7,0C1106.2,102.6,1106.2,105.7,1104.3,107.5z
	 M1084.5,127.2c0-3.6-2.9-6.5-6.5-6.5s-6.5,2.9-6.5,6.5s2.9,6.5,6.5,6.5C1081.5,133.7,1084.5,130.8,1084.5,127.2z M1077.9,183.8
	c31.3,0,56.6-25.3,56.7-56.5s-25.3-56.6-56.5-56.7c-15,0-29.5,5.9-40.1,16.6c-1.9,1.9-1.9,4.9,0,6.7c1.9,1.9,4.9,1.9,6.7,0
	c18.4-18.4,48.2-18.4,66.6-0.1c18.4,18.4,18.4,48.2,0.1,66.6c-18.4,18.4-48.2,18.4-66.6,0.1c0,0,0,0-0.1-0.1c-1.9-1.9-4.9-1.9-6.7,0
	c-1.9,1.9-1.9,4.9,0,6.7C1048.6,177.8,1063,183.8,1077.9,183.8z"/>
<g>
	<path d="M1541,126V94.9h19.7v6.6h-12.5v5.6h11.4v6.3h-11.4v6.1h12.5v6.6H1541z"/>
	<path d="M1593,126.6l-18.7-16.8V126h-7.2V94.5l1-0.2l18.5,16.7V94.9h7.2v31.5L1593,126.6z"/>
	<path d="M1610,126.3c-3.6,0-5.7-0.2-9.5-0.5V95.2c3.6-0.4,6.1-0.5,9.2-0.5c12.9,0,18.9,6.7,18.9,15.5
		C1628.6,119.3,1622.9,126.3,1610,126.3z M1610.7,101.2c-1.2,0-1.9,0-3,0.2v18.3c1.3,0.1,1.9,0.2,3.4,0.2c6.8,0,9.8-3.8,9.8-9.6
		C1620.9,104.5,1617.4,101.2,1610.7,101.2z"/>
</g>
</svg>
