<?xml version="1.0" encoding="utf-8"?>
<!-- Generator: Adobe Illustrator 23.0.3, SVG Export Plug-In . SVG Version: 6.00 Build 0)  -->
<svg version="1.1" id="Calque_1" xmlns="http://www.w3.org/2000/svg" xmlns:xlink="http://www.w3.org/1999/xlink" x="0px" y="0px"
	 viewBox="0 0 198.4 226.8" style="enable-background:new 0 0 198.4 226.8;" xml:space="preserve">
<style type="text/css">
	.st0{fill:none;stroke:#000000;stroke-width:19.896;stroke-linecap:round;stroke-miterlimit:10;}
	.st1{fill:none;stroke:#000000;stroke-width:7;stroke-linecap:round;stroke-miterlimit:10;}
	.st2{fill:none;stroke:#000000;stroke-width:7;stroke-linecap:round;stroke-linejoin:round;stroke-miterlimit:10;}
	.st3{fill:none;stroke:#000000;stroke-width:14.879;stroke-linecap:round;stroke-linejoin:round;stroke-miterlimit:10;}
	.st4{stroke:#000000;stroke-width:4;stroke-miterlimit:10;}
</style>
<title>winecheese</title>
<g>
	<path d="M-312.3,84.9c-1.4-16.4-10.9-64.9-11-65.3c-0.3-1.6-1.8-2.8-3.4-2.8h-93.6c-1.6,0-3.1,1.2-3.4,2.8v0.2v0.1
		c-0.1,0.5-0.4,2.3-0.9,4.6c-2.5,12.9-9,47.1-10.1,60.5c-1.2,15.1,4.1,30.1,14.6,41.1c11.2,12.1,26.8,19.4,43.2,20.3v52.1h-33.4
		c-1.9,0-3.5,1.6-3.5,3.5s1.6,3.5,3.5,3.5h73.7c1.9,0,3.5-1.6,3.5-3.5s-1.6-3.5-3.5-3.5H-370v-52.1c16.4-0.9,32.1-8.2,43.2-20.3
		C-316.4,115-311.1,100-312.3,84.9z M-331.3,120.6L-331.3,120.6l-0.7,0.7c-10.7,11.6-25.9,18.2-41.6,18.2c-14.3,0-28-5.4-38.5-15.1
		c-1.1-1-2.1-2-3.1-3.1c-9.1-9.6-13.7-22.7-12.7-35.8c1.2-14.1,8.7-52.9,10.4-61.8h88c3,15.6,9.3,49,10.4,61.7
		C-318.1,98.3-322.5,111.1-331.3,120.6z"/>
	<path d="M-333.7,67.6c0.3,1.6,1.7,2.8,3.3,2.8c0.2,0,0.4,0,0.6,0c1.8-0.3,3-2,2.7-3.9l-5.2-30c-0.3-1.8-2-3-3.9-2.7
		c-1.8,0.3-3,2-2.7,3.9L-333.7,67.6z"/>
</g>
<path class="st0" d="M-430,84.4c0,0,39.8-16.8,55.8-2.1s52.8,6.2,57.5-1.5"/>
<path class="st1" d="M70.7,76.4c0,0,20.7-13.6,30.5,1.8s29.5,9.6,31.5,2.5"/>
<path class="st2" d="M127.7,24.2h-25.5h-1.4H75.3c0,0-22.6,116.1,25.9,120.6l0,0c0.1,0,0.2,0,0.2,0c0.1,0,0.2,0,0.2,0l0,0
	C150.3,140.3,127.7,24.2,127.7,24.2z"/>
<line class="st2" x1="101.7" y1="144.8" x2="101.7" y2="203"/>
<line class="st2" x1="75.7" y1="203" x2="128.2" y2="203"/>
<path class="st1" d="M120.4,38.8c0,0,2.4,16.7,2.8,25.8"/>
<circle cx="87.8" cy="95.9" r="2.2"/>
<circle cx="98.5" cy="108.7" r="2.2"/>
<circle cx="113.3" cy="116" r="2.2"/>
<circle cx="106.1" cy="95.5" r="2.2"/>
<circle cx="89.1" cy="83.1" r="2.2"/>
<circle cx="82.5" cy="107.3" r="2.2"/>
<circle cx="77" cy="89.4" r="2.2"/>
<circle cx="95.2" cy="126.9" r="2.2"/>
<circle cx="81.3" cy="122.5" r="2.2"/>
<circle cx="122.3" cy="102.5" r="2.2"/>
<circle cx="119.6" cy="118" r="2.2"/>
<circle cx="113.4" cy="106.9" r="2.2"/>
<circle cx="104.6" cy="128.1" r="2.2"/>
<circle cx="111.6" cy="135.8" r="2.2"/>
<circle cx="95.2" cy="140" r="2.2"/>
<circle cx="116.2" cy="91.7" r="2.2"/>
<path class="st3" d="M2409.8,102.1l3.3-2.9c3.6-3.2,4.8-8.3,2.9-12.7l-1.7-4.1c-2.4-5.7,0.3-12.2,6-14.6c0.4-0.2,0.8-0.3,1.3-0.4
	l4.2-1.2c4.6-1.3,7.8-5.3,8.1-10.1l0.2-4.4c0.3-5.9,5.2-10.6,11.1-10.6c0.7,0,1.3,0.1,2,0.2l4.3,0.8c4.7,0.8,9.5-1.4,11.8-5.6
	l2.1-3.9c3-5.4,9.7-7.4,15.1-4.4c0.4,0.2,0.8,0.5,1.2,0.8l3.6,2.6c3.9,2.8,9.1,2.8,13,0l3.6-2.5c5-3.6,12-2.5,15.6,2.5
	c0.3,0.4,0.5,0.8,0.8,1.2l2.1,3.9c2,3.6,5.7,5.9,9.8,5.9c0.6,0,1.2-0.1,1.8-0.2l4.2-0.7c0.6-0.1,1.3-0.2,1.9-0.2
	c6,0,10.9,4.7,11.1,10.6l0.2,4.4c0.2,4.8,3.5,8.9,8.1,10.2l4.2,1.2c5.9,1.7,9.4,7.8,7.7,13.8c-0.1,0.5-0.3,0.9-0.5,1.3l-1.7,4
	c-1.9,4.4-0.7,9.6,2.9,12.7l3.3,2.9c4.6,4.1,5.1,11.2,1,15.8c-0.3,0.3-0.6,0.7-1,1l-3.3,2.9c-3.6,3.2-4.8,8.3-2.9,12.7l1.7,4.1
	c2.4,5.7-0.3,12.2-6,14.6c-0.4,0.2-0.8,0.3-1.3,0.4l-4.2,1.2c-4.6,1.2-7.9,5.2-8.3,10l-0.2,4.4c-0.3,5.9-5.2,10.6-11.1,10.6
	c-0.7,0-1.3-0.1-2-0.2l-4.3-0.7c-4.7-0.8-9.5,1.4-11.8,5.6l-2.1,3.8c-3,5.4-9.7,7.4-15.1,4.4c-0.4-0.2-0.8-0.5-1.2-0.8l-3.6-2.6
	c-3.9-2.8-9.1-2.8-13,0l-3.6,2.5c-5,3.6-12,2.5-15.6-2.5c-0.3-0.4-0.6-0.8-0.8-1.3l-2.1-3.9c-2.3-4.2-7-6.5-11.7-5.7l-4.1,0.7
	c-0.6,0.1-1.3,0.2-1.9,0.2c-6,0-10.9-4.7-11.1-10.6l-0.2-4.4c-0.2-4.8-3.5-8.9-8.1-10.2l-4.2-1.2c-5.9-1.7-9.4-7.8-7.7-13.8
	c0.1-0.5,0.3-0.9,0.5-1.3l1.7-4c1.9-4.4,0.7-9.6-2.9-12.7l-3.3-2.9c-4.6-4.2-4.9-11.2-0.7-15.8
	C2409.2,102.7,2409.5,102.4,2409.8,102.1z"/>
<path class="st3" d="M467.7,102.1l3.3-2.9c3.6-3.2,4.8-8.3,2.9-12.7l-1.7-4.1c-2.4-5.7,0.3-12.2,6-14.6c0.4-0.2,0.8-0.3,1.3-0.4
	l4.2-1.2c4.6-1.3,7.8-5.3,8.1-10.1l0.2-4.4c0.3-5.9,5.2-10.6,11.1-10.6c0.7,0,1.3,0.1,2,0.2l4.3,0.8c4.7,0.8,9.5-1.4,11.8-5.6
	l2.1-3.9c3-5.4,9.7-7.4,15.1-4.4c0.4,0.2,0.8,0.5,1.2,0.8l3.6,2.6c3.9,2.8,9.1,2.8,13,0l3.6-2.5c5-3.6,12-2.5,15.6,2.5
	c0.3,0.4,0.5,0.8,0.8,1.2l2.1,3.9c2,3.6,5.7,5.9,9.8,5.9c0.6,0,1.2-0.1,1.8-0.2l4.2-0.7c0.6-0.1,1.3-0.2,1.9-0.2
	c6,0,10.9,4.7,11.1,10.6l0.2,4.4c0.2,4.8,3.5,8.9,8.1,10.2l4.2,1.2c5.9,1.7,9.4,7.8,7.7,13.8c-0.1,0.5-0.3,0.9-0.5,1.3l-1.7,4
	c-1.9,4.4-0.7,9.6,2.9,12.7l3.3,2.9c4.6,4.1,5.1,11.2,1,15.8c-0.3,0.3-0.6,0.7-1,1l-3.3,2.9c-3.6,3.2-4.8,8.3-2.9,12.7l1.7,4.1
	c2.4,5.7-0.3,12.2-6,14.6c-0.4,0.2-0.8,0.3-1.3,0.4l-4.2,1.2c-4.6,1.2-7.9,5.2-8.3,10l-0.2,4.4c-0.3,5.9-5.2,10.6-11.1,10.6
	c-0.7,0-1.3-0.1-2-0.2l-4.3-0.7c-4.7-0.8-9.5,1.4-11.8,5.6l-2.1,3.8c-3,5.4-9.7,7.4-15.1,4.4c-0.4-0.2-0.8-0.5-1.2-0.8l-3.6-2.6
	c-3.9-2.8-9.1-2.8-13,0l-3.6,2.5c-5,3.6-12,2.5-15.6-2.5c-0.3-0.4-0.6-0.8-0.8-1.3l-2.1-3.9c-2.3-4.2-7-6.5-11.7-5.7l-4.1,0.7
	c-0.6,0.1-1.3,0.2-1.9,0.2c-6,0-10.9-4.7-11.1-10.6l-0.2-4.4c-0.2-4.8-3.5-8.9-8.1-10.2l-4.2-1.2c-5.9-1.7-9.4-7.8-7.7-13.8
	c0.1-0.5,0.3-0.9,0.5-1.3l1.7-4c1.9-4.4,0.7-9.6-2.9-12.7l-3.3-2.9c-4.6-4.2-4.9-11.2-0.7-15.8C467.1,102.7,467.4,102.4,467.7,102.1
	z"/>
<g>
	<path d="M527.9,110.3c-10.4,0-16.3-8.5-16.3-17.7s6-17.7,16.5-17.7s16.3,8.5,16.3,17.7S538.5,110.3,527.9,110.3z M525.1,145.7
		l-6.7-5.6l53.8-65.7l6.7,5.6L525.1,145.7z M528,83.7c-3.2,0-5.1,3.3-5.1,9s1.8,9,5.1,9s5.2-3.3,5.2-9S531.4,83.7,528,83.7z
		 M569.1,145c-10.6,0-16.3-8.5-16.3-17.7c0-9.1,6-17.7,16.5-17.7c10.6,0,16.3,8.6,16.3,17.7C585.7,136.5,579.7,145,569.1,145z
		 M569.3,118.4c-3.3,0-5.2,3.3-5.2,9c0,5.7,1.8,9.1,5.2,9.1c3.2,0,5.1-3.4,5.1-9.1S572.5,118.4,569.3,118.4z"/>
</g>
<path class="st4" d="M1041.7,187.5h-26.9v-9.2l21.2-21.2c5.2,4.5,11.7,6.8,18.3,6.8c7.5,0,15.1-2.9,21-8.8
	c15.3-15.3,14.5-51.1,14.5-52.6c0-1-0.9-1.9-1.9-1.9c-1.5,0-37.8-0.3-52.6,14.5c-5.5,5.5-8.6,12.8-8.8,20.4
	c-0.1,7,2.3,13.6,6.8,18.8l-18.5,18.5v-59.3c14.7-1,26.4-13.7,26.4-29.2c0-21.7-25.8-46.4-26.9-47.4c-0.8-0.7-1.9-0.7-2.7,0
	c-1.1,1.1-26.9,26.6-27,47.4c0,7.8,2.9,15.1,8.3,20.7c4.9,5.1,11.2,8,18.1,8.5v59.3l-18.5-18.5c4.5-5.2,6.9-11.8,6.8-18.8
	c-0.1-7.7-3.3-14.9-8.8-20.4c-14.7-14.7-51-14.5-52.6-14.5c-1,0-1.9,0.8-1.9,1.9c0,1.5-0.9,37.2,14.5,52.6c5.8,5.8,13.4,8.8,21,8.8
	c6.6,0,13.1-2.3,18.3-6.8l21.3,21.2v9.2h-27c-1.1,0-1.9,0.9-1.9,1.9s0.9,1.9,1.9,1.9h57.8c1.1,0,1.9-0.9,1.9-1.9
	S1042.8,187.5,1041.7,187.5z M1038.7,154.3l5.7-5.7l30.6,0.8c-0.8,1.1-1.6,2-2.5,2.9C1063.1,161.8,1048.4,162.5,1038.7,154.3z
	 M1083.6,127.8l-17.8-0.5l20.1-20.1C1085.7,112,1085.2,119.8,1083.6,127.8z M1077.5,145.6l-29.3-0.8l13.7-13.7l20.7,0.5
	C1081.5,136.6,1079.8,141.4,1077.5,145.6z M1063,124.6l-0.5-17.6c8-1.6,15.7-2.2,20.5-2.4L1063,124.6z M1059.2,128.4l-13.7,13.7
	l-0.7-29.1c4.2-2.2,9-3.9,13.9-5.1L1059.2,128.4z M1030.4,135.6c0.1-6.7,2.8-13,7.6-17.8c0.9-0.9,1.9-1.7,3-2.5l0.8,30.5l-5.7,5.7
	C1032.3,147.2,1030.3,141.6,1030.4,135.6z M996,62.7l14.9,14.1v19.4l-21.1-20.1C991.1,71.6,993.4,67,996,62.7z M1036,76.1
	l-21.2,20.2V76.9l15-14.3C1032.4,66.9,1034.7,71.5,1036,76.1z M1010.9,71.5l-12.8-12.1c4.5-6.8,9.6-12.7,12.8-16.2V71.5z
	 M1014.8,109.6v-8.1l22.2-21.1c0.2,1.3,0.3,2.6,0.3,3.9C1037.3,97.7,1027.3,108.6,1014.8,109.6z M1027.7,59.2l-12.9,12.3V43.1
	C1018,46.5,1023.2,52.4,1027.7,59.2z M995.6,102.3c-4.6-4.8-7.2-11.2-7.2-18c0-1.3,0.1-2.5,0.3-3.8l22.1,21v8.1
	C1005.1,109.2,999.8,106.6,995.6,102.3z M995.3,135.6c0.1,6-1.9,11.6-5.6,16l-5.7-5.7l0.8-30.5c1.1,0.8,2.1,1.6,3,2.5
	C992.4,122.7,995.1,129,995.3,135.6z M942.9,131.7l20.7-0.5l13.7,13.7l-29.3,0.8C945.8,141.4,944.1,136.6,942.9,131.7z M942.6,104.6
	c4.8,0.2,12.5,0.8,20.5,2.4l-0.5,17.6L942.6,104.6z M939.8,107.3l20.1,20.1l-17.8,0.5C940.4,119.8,939.9,112,939.8,107.3z
	 M966.4,128.4l0.5-20.5c4.9,1.2,9.8,2.9,13.9,5.1l-0.8,29.1L966.4,128.4z M953.1,152.4c-0.9-0.9-1.7-1.9-2.5-2.9l30.6-0.8l5.7,5.7
	C977.3,162.5,962.5,161.8,953.1,152.4z"/>
<path class="st3" d="M1392,102.1l3.3-2.9c3.6-3.2,4.8-8.3,2.9-12.7l-1.7-4.1c-2.4-5.7,0.3-12.2,6-14.6c0.4-0.2,0.8-0.3,1.3-0.4
	l4.2-1.2c4.6-1.3,7.8-5.3,8.1-10.1l0.2-4.4c0.3-5.9,5.2-10.6,11.1-10.6c0.7,0,1.3,0.1,2,0.2l4.3,0.8c4.7,0.8,9.5-1.4,11.8-5.6
	l2.1-3.9c3-5.4,9.7-7.4,15.1-4.4c0.4,0.2,0.8,0.5,1.2,0.8l3.6,2.6c3.9,2.8,9.1,2.8,13,0l3.6-2.5c5-3.6,12-2.5,15.6,2.5
	c0.3,0.4,0.5,0.8,0.8,1.2l2.1,3.9c2,3.6,5.7,5.9,9.8,5.9c0.6,0,1.2-0.1,1.8-0.2l4.2-0.7c0.6-0.1,1.3-0.2,1.9-0.2
	c6,0,10.9,4.7,11.1,10.6l0.2,4.4c0.2,4.8,3.5,8.9,8.1,10.2l4.2,1.2c5.9,1.7,9.4,7.8,7.7,13.8c-0.1,0.5-0.3,0.9-0.5,1.3l-1.7,4
	c-1.9,4.4-0.7,9.6,2.9,12.7l3.3,2.9c4.6,4.1,5.1,11.2,1,15.8c-0.3,0.3-0.6,0.7-1,1l-3.3,2.9c-3.6,3.2-4.8,8.3-2.9,12.7l1.7,4.1
	c2.4,5.7-0.3,12.2-6,14.6c-0.4,0.2-0.8,0.3-1.3,0.4l-4.2,1.2c-4.6,1.2-7.9,5.2-8.3,10l-0.2,4.4c-0.3,5.9-5.2,10.6-11.1,10.6
	c-0.7,0-1.3-0.1-2-0.2l-4.3-0.7c-4.7-0.8-9.5,1.4-11.8,5.6l-2.1,3.8c-3,5.4-9.7,7.4-15.1,4.4c-0.4-0.2-0.8-0.5-1.2-0.8l-3.6-2.6
	c-3.9-2.8-9.1-2.8-13,0l-3.6,2.5c-5,3.6-12,2.5-15.6-2.5c-0.3-0.4-0.6-0.8-0.8-1.3l-2.1-3.9c-2.3-4.2-7-6.5-11.7-5.7l-4.1,0.7
	c-0.6,0.1-1.3,0.2-1.9,0.2c-6,0-10.9-4.7-11.1-10.6l-0.2-4.4c-0.2-4.8-3.5-8.9-8.1-10.2l-4.2-1.2c-5.9-1.7-9.4-7.8-7.7-13.8
	c0.1-0.5,0.3-0.9,0.5-1.3l1.7-4c1.9-4.4,0.7-9.6-2.9-12.7l-3.3-2.9c-4.6-4.2-4.9-11.2-0.7-15.8
	C1391.3,102.7,1391.7,102.4,1392,102.1z"/>
<g>
	<path d="M1449.9,126.6l-18.9-17V126h-7.3V94.2l1-0.2l18.7,16.9V94.7h7.3v31.8L1449.9,126.6z"/>
	<path d="M1457.5,126V94.7h19.9v6.7h-12.6v5.6h11.5v6.3h-11.5v6.1h12.6v6.6C1477.4,126,1457.5,126,1457.5,126z"/>
	<path d="M1512.9,126.5l-1,0.1l-9.6-18.8l-9.5,18.8l-0.9-0.1l-11.4-31.9h8.3l5,16.5l8.2-16.7h0.8l8.2,16.6l5-16.3h8.2L1512.9,126.5z
		"/>
</g>
<path d="M2051.5,75.8l-5.3,5.3c25.4,33.9,18.6,81.9-15.3,107.3c-11.8,8.9-26,14.2-40.8,15.2c-1.7,0.1-3.5,0.2-5.2,0.2
	c-21.7,0-42.4-9.1-56.9-25.3c-1.7-2-1.5-5,0.5-6.7c1.9-1.7,4.8-1.5,6.6,0.3c24.9,27.5,67.3,29.7,94.9,4.8
	c26.9-24.3,29.7-65.5,6.3-93.2c-1.6-1.9-1.5-4.7,0.3-6.4l8.3-8.3c1.2-1.4,1.1-3.5-0.2-4.8c-1.3-1.2-3.2-1.2-4.5,0l-8.6,8.6
	c-1.7,1.7-4.3,1.9-6.2,0.4c-9.5-7.2-20.8-11.6-32.7-13c-2.4-0.3-4.2-2.3-4.2-4.7V40.4c0-2.6,2.1-4.8,4.7-4.8h0.1h4.4
	c1.9,0,3.4-1.5,3.4-3.4c0-1.9-1.5-3.4-3.4-3.4h-25c-1.9,0-3.4,1.5-3.4,3.4c0,1.9,1.5,3.4,3.4,3.4h4.4c2.6,0,4.8,2.1,4.8,4.8v15.4
	c0,2.4-1.8,4.4-4.2,4.7c-15.4,1.8-29.7,8.8-40.5,19.8c-1.8,1.9-4.9,1.9-6.7,0.1c-1.9-1.8-1.9-4.9-0.1-6.7c11.3-11.6,26-19.3,42-22
	v-6.5c-7.1-0.6-12.3-6.9-11.7-14c0.6-6.3,5.7-11.3,12.1-11.7h25c7.1,0.4,12.5,6.5,12.1,13.6c-0.4,6.4-5.3,11.5-11.7,12.1v6.4
	c10.6,1.8,20.8,5.8,29.7,11.8l5.7-5.7c5-5,13.2-5,18.2,0S2056.5,70.8,2051.5,75.8L2051.5,75.8L2051.5,75.8z M1895.6,102.8
	c0,2.6,2.1,4.8,4.8,4.8h33c2.6,0,4.8-2.1,4.8-4.8s-2.1-4.8-4.8-4.8h-33C1897.7,98.1,1895.6,100.2,1895.6,102.8L1895.6,102.8z
	 M1949.6,125.9c0-2.6-2.1-4.8-4.8-4.8h-33c-2.6,0-4.8,2.1-4.8,4.8c0,2.6,2.1,4.8,4.8,4.8h33C1947.5,130.6,1949.6,128.5,1949.6,125.9
	z M1900.3,153.7h33c2.6,0,4.8-2.1,4.8-4.8s-2.1-4.8-4.8-4.8h-33c-2.6,0-4.8,2.1-4.8,4.8S1897.7,153.7,1900.3,153.7z M2011.3,107.5
	l-12.2,12.2c4.1,7.9,1.1,17.6-6.7,21.7c-7.9,4.1-17.6,1.1-21.7-6.7c-4.1-7.9-1.1-17.6,6.7-21.7c4.7-2.5,10.3-2.5,15,0l12.2-12.2
	c1.9-1.9,4.9-1.9,6.7,0C2013.2,102.6,2013.2,105.7,2011.3,107.5z M1991.5,127.2c0-3.6-2.9-6.5-6.5-6.5s-6.5,2.9-6.5,6.5
	c0,3.6,2.9,6.5,6.5,6.5C1988.5,133.7,1991.5,130.8,1991.5,127.2z M1984.9,183.8c31.3,0,56.6-25.3,56.7-56.5s-25.3-56.6-56.5-56.7
	c-15,0-29.5,5.9-40.1,16.6c-1.9,1.9-1.9,4.9,0,6.7c1.9,1.9,4.9,1.9,6.7,0c18.4-18.4,48.2-18.4,66.6-0.1
	c18.4,18.4,18.4,48.2,0.1,66.6s-48.2,18.4-66.6,0.1c0,0,0,0-0.1-0.1c-1.9-1.9-4.9-1.9-6.7,0c-1.9,1.9-1.9,4.9,0,6.7
	C1955.6,177.8,1970,183.8,1984.9,183.8z"/>
<g>
	<path d="M2448,126V94.9h19.7v6.6h-12.5v5.6h11.4v6.3h-11.4v6.1h12.5v6.6L2448,126L2448,126z"/>
	<path d="M2500,126.6l-18.7-16.8V126h-7.2V94.5l1-0.2l18.5,16.7V94.9h7.2v31.5L2500,126.6z"/>
	<path d="M2517,126.3c-3.6,0-5.7-0.2-9.5-0.5V95.2c3.6-0.4,6.1-0.5,9.2-0.5c12.9,0,18.9,6.7,18.9,15.5
		C2535.6,119.3,2529.9,126.3,2517,126.3z M2517.7,101.2c-1.2,0-1.9,0-3,0.2v18.3c1.3,0.1,1.9,0.2,3.4,0.2c6.8,0,9.8-3.8,9.8-9.6
		S2524.4,101.2,2517.7,101.2z"/>
</g>
</svg>
